<?xml version="1.0" encoding="utf-8"?>
<!-- Generator: Adobe Illustrator 16.0.0, SVG Export Plug-In . SVG Version: 6.00 Build 0)  -->
<!DOCTYPE svg PUBLIC "-//W3C//DTD SVG 1.1//EN" "http://www.w3.org/Graphics/SVG/1.1/DTD/svg11.dtd">
<svg version="1.1" id="Layer_2" xmlns="http://www.w3.org/2000/svg" xmlns:xlink="http://www.w3.org/1999/xlink" x="0px" y="0px"
	 width="44.666px" height="44.834px" viewBox="0 0 44.666 44.834" enable-background="new 0 0 44.666 44.834" xml:space="preserve">
<g id="Facebook_3_">
	<path fill="#3A4284" d="M12.864,10.729c0,0.455,0,2.486,0,2.486h-1.822v3.04h1.822v9.034h3.741v-9.033h2.51
		c0,0,0.235-1.458,0.35-3.052c-0.328,0-2.847,0-2.847,0s0-1.768,0-2.078c0-0.311,0.408-0.728,0.812-0.728s1.252,0,2.038,0
		c0-0.414,0-1.844,0-3.166c-1.049,0-2.246,0-2.771,0C12.771,7.232,12.864,10.275,12.864,10.729z"/>
</g>
<circle fill="none" stroke="#3A4284" stroke-width="1.5" stroke-miterlimit="10" cx="15.75" cy="15.75" r="14.75"/>
</svg>
