<?xml version="1.0" encoding="utf-8"?>
<!-- Generator: Adobe Illustrator 15.0.0, SVG Export Plug-In . SVG Version: 6.00 Build 0)  -->
<!DOCTYPE svg PUBLIC "-//W3C//DTD SVG 1.1//EN" "http://www.w3.org/Graphics/SVG/1.1/DTD/svg11.dtd">
<svg version="1.1" id="Layer_1" xmlns="http://www.w3.org/2000/svg" xmlns:xlink="http://www.w3.org/1999/xlink" x="0px" y="0px"
	 width="31.833px" height="28.659px" viewBox="0 0 31.833 28.659" enable-background="new 0 0 31.833 28.659" xml:space="preserve">
<path fill="none" stroke="#010101" stroke-width="1.5" stroke-linejoin="round" stroke-miterlimit="10" d="M10.258,8.001
	c0.157,0,0.284,0.127,0.284,0.284v12.433c0,0.157-0.127,0.284-0.284,0.284H7.825c-0.157,0-0.284-0.127-0.284-0.284V8.285
	c0-0.157,0.127-0.284,0.284-0.284H10.258z"/>
<path fill="none" stroke="#010101" stroke-width="1.5" stroke-linejoin="round" stroke-miterlimit="10" d="M7.258,19.001H4.825
	c-0.157,0-0.284-0.127-0.284-0.284v-8.433c0-0.157,0.127-0.284,0.284-0.284h2.433"/>
<path fill="none" stroke="#010101" stroke-width="1.5" stroke-linejoin="round" stroke-miterlimit="10" d="M4.258,16.001H2.825
	c-0.157,0-0.284-0.127-0.284-0.284v-2.433c0-0.157,0.127-0.284,0.284-0.284h1.433"/>
<path fill="none" stroke="#010101" stroke-width="1.5" stroke-linejoin="round" stroke-miterlimit="10" d="M21.825,21
	c-0.156,0-0.283-0.127-0.283-0.283V8.284C21.542,8.127,21.669,8,21.825,8h2.433c0.157,0,0.284,0.127,0.284,0.284v12.433
	c0,0.156-0.127,0.283-0.284,0.283H21.825z"/>
<path fill="none" stroke="#010101" stroke-width="1.5" stroke-linejoin="round" stroke-miterlimit="10" d="M24.825,10h2.433
	c0.157,0,0.284,0.127,0.284,0.284v8.433c0,0.156-0.127,0.283-0.284,0.283h-2.433"/>
<path fill="none" stroke="#010101" stroke-width="1.5" stroke-linejoin="round" stroke-miterlimit="10" d="M27.825,13h1.433
	c0.157,0,0.284,0.127,0.284,0.284v2.433c0,0.156-0.127,0.283-0.284,0.283h-1.433"/>
<path fill="none" stroke="#010101" stroke-width="1.5" stroke-linejoin="round" stroke-miterlimit="10" d="M21.258,16H10.825"/>
<path fill="none" stroke="#010101" stroke-width="1.5" stroke-linejoin="round" stroke-miterlimit="10" d="M10.825,13h10.433"/>
</svg>
