<?xml version="1.0" encoding="utf-8"?>
<!-- Generator: Adobe Illustrator 15.0.0, SVG Export Plug-In . SVG Version: 6.00 Build 0)  -->
<!DOCTYPE svg PUBLIC "-//W3C//DTD SVG 1.1//EN" "http://www.w3.org/Graphics/SVG/1.1/DTD/svg11.dtd">
<svg version="1.1" id="Layer_1" xmlns="http://www.w3.org/2000/svg" xmlns:xlink="http://www.w3.org/1999/xlink" x="0px" y="0px"
	 width="31.833px" height="28.659px" viewBox="0 0 31.833 28.659" enable-background="new 0 0 31.833 28.659" xml:space="preserve">
<path fill="none" stroke="#010101" stroke-width="1.5" stroke-linejoin="round" stroke-miterlimit="10" d="M28.542,20.175
	c0,0.156-0.127,0.283-0.284,0.283H3.825c-0.157,0-0.284-0.127-0.284-0.283v-2.434c0-0.156,0.127-0.283,0.284-0.283h24.433
	c0.157,0,0.284,0.127,0.284,0.283V20.175z"/>
<path fill="none" stroke="#010101" stroke-width="1.5" stroke-linejoin="round" stroke-miterlimit="10" d="M4.208,17.125
	c0,0-1.042-3.458,0-6.125c0.292-0.75,1.75-1.417,2.375,0.583c0.083,0.5,2.25,0.792,3.792-0.292s3.833-4.417,6.875-2.25
	c3.042,2.167,4.708,2.792,5.583,4.25c2.459-0.792,6.209,1.958,5.084,4.167"/>
<path fill="none" stroke="#010101" stroke-width="1.5" stroke-linejoin="round" stroke-miterlimit="10" d="M11,10.333
	c0,0-1.5-1.167-0.292-2.583s1.708-1.625,3.458-1.292s4.292,3.292,4.542,3.708c0,0-3.012,1.666-4.235,3.458
	c-1.223,1.792-1.807,3.583-1.807,3.583"/>
<path fill="none" stroke="#010101" stroke-width="1.5" stroke-linejoin="round" stroke-miterlimit="10" d="M15.375,17.792
	c0,0,2.833-5.889,5.667-6.028"/>
<path fill="none" stroke="#010101" stroke-width="1.5" stroke-linejoin="round" stroke-miterlimit="10" d="M18.5,17.792
	c0,0,1.208-2.834,4-4.542"/>
</svg>
