<?xml version="1.0" encoding="utf-8"?>
<!-- Generator: Adobe Illustrator 15.0.0, SVG Export Plug-In . SVG Version: 6.00 Build 0)  -->
<!DOCTYPE svg PUBLIC "-//W3C//DTD SVG 1.1//EN" "http://www.w3.org/Graphics/SVG/1.1/DTD/svg11.dtd">
<svg version="1.1" id="Layer_1" xmlns="http://www.w3.org/2000/svg" xmlns:xlink="http://www.w3.org/1999/xlink" x="0px" y="0px"
	 width="31.833px" height="28.659px" viewBox="0 0 31.833 28.659" enable-background="new 0 0 31.833 28.659" xml:space="preserve">
<path fill="none" stroke="#010101" stroke-width="1.5" stroke-linejoin="round" stroke-miterlimit="10" d="M24.167,14.25
	c0,4.755-3.723,8.642-8.414,8.903c-0.167,0.009-0.334,0.014-0.503,0.014c-2.068,0-3.972-0.704-5.483-1.886
	c-2.089-1.631-3.433-4.174-3.433-7.031c0-4.924,3.992-8.917,8.917-8.917c2.817,0,5.331,1.307,6.965,3.349
	C23.437,10.208,24.167,12.144,24.167,14.25z"/>
<path fill="none" stroke="#010101" stroke-width="1.5" stroke-linejoin="round" stroke-miterlimit="10" d="M6.833,15.583
	c0,0,2.667,0.666,4.667-0.667s2.917-2.75,3.083-3.833s0.75-2.5,0-5.167"/>
<path fill="none" stroke="#010101" stroke-width="1.5" stroke-linejoin="round" stroke-miterlimit="10" d="M24.583,13.417
	c0,0-3.833-0.667-5.083,0.833c-1.25,1.5-3.5,2.75-3.833,5s0.5,4.334,0.5,4.334"/>
</svg>
