<?xml version="1.0" encoding="utf-8"?>
<!-- Generator: Adobe Illustrator 16.0.0, SVG Export Plug-In . SVG Version: 6.00 Build 0)  -->
<!DOCTYPE svg PUBLIC "-//W3C//DTD SVG 1.1//EN" "http://www.w3.org/Graphics/SVG/1.1/DTD/svg11.dtd">
<svg version="1.1" id="Layer_2" xmlns="http://www.w3.org/2000/svg" xmlns:xlink="http://www.w3.org/1999/xlink" x="0px" y="0px"
	 width="44.666px" height="44.834px" viewBox="0 0 44.666 44.834" enable-background="new 0 0 44.666 44.834" xml:space="preserve">
<path id="LinkedIn_3_" fill="#3A4284" d="M23.598,16.401v5.684h-3.294v-5.3c0-1.332-0.476-2.243-1.668-2.243
	c-0.91,0-1.452,0.614-1.69,1.207c-0.088,0.211-0.109,0.507-0.109,0.803v5.533h-3.294c0,0,0.043-8.978,0-9.909h3.294v1.404
	c-0.006,0.011-0.017,0.021-0.021,0.032h0.021v-0.032c0.438-0.674,1.22-1.637,2.97-1.637C21.974,11.943,23.598,13.359,23.598,16.401z
	 M10.094,7.4C8.967,7.4,8.23,8.139,8.23,9.111c0,0.952,0.716,1.714,1.821,1.714h0.021c1.15,0,1.864-0.761,1.864-1.714
	C11.915,8.139,11.222,7.4,10.094,7.4z M8.427,22.085h3.293v-9.909H8.427V22.085z"/>
<circle fill="none" stroke="#3A4284" stroke-width="1.5" stroke-miterlimit="10" cx="15.75" cy="15.75" r="14.75"/>
</svg>
