<?xml version="1.0" encoding="utf-8"?>
<!-- Generator: Adobe Illustrator 15.0.0, SVG Export Plug-In . SVG Version: 6.00 Build 0)  -->
<!DOCTYPE svg PUBLIC "-//W3C//DTD SVG 1.1//EN" "http://www.w3.org/Graphics/SVG/1.1/DTD/svg11.dtd">
<svg version="1.1" xmlns="http://www.w3.org/2000/svg" xmlns:xlink="http://www.w3.org/1999/xlink" x="0px" y="0px" width="358px"
	 height="253px" viewBox="0 0 358 253" enable-background="new 0 0 358 253" xml:space="preserve">
<g id="Layer_1">
	<g opacity="0.05">
		<path fill="#EFEFEF" d="M162.75,8.861c-0.488-0.501-0.476-1.296,0.021-1.785l0,0c0.5-0.488,1.3-0.479,1.784,0.021l0,0
			c0.488,0.501,0.48,1.301-0.021,1.785l0,0c-0.244,0.24-0.564,0.362-0.88,0.362l0,0C163.326,9.244,162.998,9.113,162.75,8.861z"/>
	</g>
	<g opacity="0.05">
		<path fill="#EFEFEF" d="M148.928,22.257c-0.488-0.5-0.476-1.3,0.021-1.789l0,0c0.501-0.484,1.301-0.476,1.789,0.025l0,0
			c0.484,0.497,0.476,1.296-0.021,1.784l0,0c-0.249,0.24-0.564,0.358-0.884,0.358l0,0C149.504,22.636,149.176,22.51,148.928,22.257z
			"/>
	</g>
	<g opacity="0.05">
		<path fill="#EFEFEF" d="M106.242,64.438c-0.488-0.5-0.48-1.3,0.021-1.784l0,0c0.497-0.488,1.296-0.48,1.785,0.021l0,0
			c0.488,0.497,0.476,1.296-0.021,1.785l0,0c-0.249,0.24-0.564,0.357-0.884,0.357l0,0C106.814,64.817,106.486,64.691,106.242,64.438
			z M110.758,60.027c-0.488-0.497-0.476-1.296,0.021-1.785l0,0c0.501-0.488,1.3-0.476,1.789,0.021l0,0
			c0.484,0.501,0.476,1.301-0.025,1.785l0,0c-0.244,0.24-0.563,0.362-0.879,0.362l0,0C111.335,60.41,111.006,60.284,110.758,60.027z
			 M115.278,55.621c-0.488-0.5-0.479-1.3,0.021-1.789l0,0c0.496-0.484,1.296-0.476,1.784,0.025l0,0
			c0.488,0.497,0.476,1.296-0.021,1.784l0,0c-0.244,0.24-0.564,0.358-0.884,0.358l0,0C115.851,56,115.522,55.873,115.278,55.621z"/>
	</g>
	<g opacity="0.05">
		<path fill="#EFEFEF" d="M59.642,109.452c-0.488-0.501-0.48-1.301,0.021-1.785l0,0c0.497-0.488,1.296-0.48,1.785,0.021l0,0
			c0.488,0.501,0.48,1.3-0.021,1.785l0,0c-0.244,0.24-0.564,0.362-0.884,0.362l0,0C60.214,109.834,59.886,109.704,59.642,109.452z
			 M64.158,105.041c-0.488-0.497-0.476-1.296,0.021-1.785l0,0c0.501-0.488,1.301-0.476,1.789,0.021l0,0
			c0.484,0.5,0.476,1.3-0.021,1.789l0,0c-0.248,0.236-0.564,0.357-0.884,0.357l0,0C64.735,105.423,64.407,105.297,64.158,105.041z"
			/>
	</g>
	<g opacity="0.05">
		<path fill="#EFEFEF" d="M96.625,39.257c-0.488-0.501-0.476-1.3,0.025-1.785l0,0c0.501-0.488,1.3-0.476,1.784,0.025l0,0
			c0.488,0.501,0.476,1.3-0.025,1.785l0,0c-0.244,0.24-0.564,0.357-0.88,0.357l0,0C97.202,39.64,96.873,39.509,96.625,39.257z
			 M101.154,34.859c-0.488-0.501-0.476-1.301,0.025-1.785l0,0c0.501-0.488,1.301-0.476,1.785,0.025l0,0
			c0.488,0.501,0.476,1.301-0.025,1.785l0,0c-0.244,0.24-0.564,0.358-0.88,0.358l0,0C101.73,35.242,101.402,35.111,101.154,34.859z
			 M110.211,26.062c-0.484-0.501-0.476-1.301,0.025-1.785l0,0c0.501-0.488,1.301-0.476,1.785,0.025l0,0
			c0.488,0.501,0.476,1.301-0.025,1.785l0,0c-0.244,0.24-0.56,0.358-0.879,0.358l0,0C110.788,26.445,110.459,26.314,110.211,26.062z
			 M114.74,21.664c-0.484-0.501-0.471-1.3,0.025-1.785l0,0c0.5-0.488,1.3-0.476,1.789,0.025l0,0c0.484,0.5,0.471,1.296-0.029,1.785
			l0,0c-0.244,0.24-0.56,0.357-0.88,0.357l0,0C115.316,22.047,114.988,21.917,114.74,21.664z M119.269,17.266
			c-0.484-0.5-0.471-1.3,0.025-1.784l0,0c0.501-0.488,1.301-0.476,1.789,0.025l0,0c0.484,0.501,0.471,1.301-0.029,1.785l0,0
			c-0.244,0.24-0.56,0.358-0.88,0.358l0,0C119.845,17.649,119.517,17.518,119.269,17.266z M123.797,12.868
			c-0.484-0.501-0.472-1.301,0.029-1.789l0,0c0.497-0.484,1.296-0.472,1.785,0.029l0,0c0.484,0.497,0.471,1.3-0.025,1.785l0,0
			c-0.249,0.24-0.564,0.357-0.88,0.357l0,0C124.374,13.25,124.045,13.12,123.797,12.868z M132.854,4.071
			c-0.484-0.501-0.471-1.301,0.029-1.785l0,0c0.501-0.488,1.296-0.476,1.785,0.025l0,0c0.484,0.5,0.476,1.296-0.025,1.784l0,0
			c-0.248,0.24-0.564,0.358-0.879,0.358l0,0C133.431,4.454,133.103,4.324,132.854,4.071z"/>
	</g>
	<g opacity="0.05">
		<path fill="#EFEFEF" d="M48.548,85.583c-0.484-0.501-0.472-1.296,0.029-1.785l0,0c0.497-0.484,1.296-0.476,1.785,0.025l0,0
			c0.484,0.501,0.471,1.301-0.025,1.785l0,0c-0.248,0.24-0.564,0.358-0.879,0.358l0,0C49.125,85.966,48.796,85.84,48.548,85.583z
			 M53.076,81.185c-0.484-0.501-0.471-1.3,0.03-1.785l0,0c0.501-0.484,1.296-0.476,1.785,0.025l0,0
			c0.484,0.501,0.475,1.3-0.025,1.785l0,0c-0.249,0.24-0.564,0.357-0.88,0.357l0,0C53.657,81.568,53.325,81.442,53.076,81.185z
			 M57.609,76.787c-0.488-0.501-0.476-1.301,0.025-1.785l0,0c0.5-0.484,1.3-0.476,1.784,0.025l0,0
			c0.484,0.501,0.476,1.301-0.025,1.785l0,0c-0.249,0.24-0.564,0.358-0.88,0.358l0,0C58.182,77.17,57.854,77.043,57.609,76.787z
			 M75.724,59.194c-0.488-0.5-0.476-1.3,0.025-1.784l0,0c0.5-0.488,1.3-0.476,1.784,0.025l0,0c0.488,0.501,0.476,1.301-0.025,1.785
			l0,0c-0.244,0.24-0.564,0.358-0.88,0.358l0,0C76.301,59.577,75.973,59.451,75.724,59.194z M80.253,54.796
			c-0.488-0.501-0.476-1.301,0.025-1.785l0,0c0.501-0.484,1.301-0.476,1.785,0.025l0,0c0.488,0.5,0.476,1.3-0.025,1.784l0,0
			c-0.244,0.24-0.564,0.358-0.879,0.358l0,0C80.829,55.179,80.501,55.053,80.253,54.796z M84.781,50.397
			c-0.484-0.5-0.476-1.3,0.025-1.785l0,0c0.501-0.488,1.3-0.476,1.785,0.025l0,0c0.488,0.501,0.476,1.301-0.025,1.785l0,0
			c-0.244,0.24-0.56,0.358-0.88,0.358l0,0C85.358,50.781,85.03,50.654,84.781,50.397z"/>
	</g>
	<g opacity="0.05">
		<path fill="#EFEFEF" d="M1.969,131.182c-0.484-0.501-0.476-1.301,0.025-1.785l0,0c0.501-0.488,1.3-0.476,1.789,0.025l0,0
			c0.484,0.501,0.471,1.3-0.029,1.785l0,0c-0.244,0.24-0.56,0.357-0.88,0.357l0,0C2.545,131.564,2.217,131.438,1.969,131.182z
			 M6.498,126.783c-0.484-0.501-0.472-1.3,0.025-1.784l0,0c0.5-0.488,1.3-0.476,1.789,0.025l0,0
			c0.484,0.501,0.471,1.301-0.029,1.785l0,0c-0.244,0.24-0.56,0.358-0.88,0.358l0,0C7.074,127.167,6.746,127.04,6.498,126.783z
			 M11.026,122.385c-0.484-0.501-0.472-1.301,0.025-1.785l0,0c0.5-0.488,1.3-0.476,1.789,0.025l0,0c0.484,0.5,0.471,1.3-0.03,1.785
			l0,0c-0.244,0.24-0.56,0.357-0.875,0.357l0,0C11.603,122.768,11.274,122.642,11.026,122.385z M15.555,117.987
			c-0.484-0.501-0.471-1.3,0.03-1.784l0,0c0.497-0.488,1.296-0.476,1.784,0.025l0,0c0.484,0.501,0.472,1.301-0.025,1.785l0,0
			c-0.249,0.24-0.564,0.358-0.88,0.358l0,0C16.131,118.37,15.803,118.244,15.555,117.987z M20.083,113.589
			c-0.484-0.501-0.471-1.301,0.029-1.785l0,0c0.497-0.488,1.296-0.476,1.785,0.025l0,0c0.484,0.5,0.471,1.3-0.025,1.785l0,0
			c-0.249,0.24-0.564,0.357-0.88,0.357l0,0C20.66,113.972,20.332,113.841,20.083,113.589z"/>
	</g>
	<g opacity="0.05">
		<path fill="#EFEFEF" d="M57.875,42.308c-0.497-0.492-0.497-1.292-0.004-1.789l0,0c0.493-0.493,1.292-0.497,1.785-0.004l0,0
			c0.497,0.493,0.497,1.292,0.004,1.789l0,0c-0.244,0.244-0.568,0.37-0.893,0.37l0,0C58.442,42.674,58.123,42.552,57.875,42.308z
			 M62.327,37.83c-0.492-0.492-0.496-1.292-0.004-1.785l0,0c0.492-0.492,1.292-0.497,1.784-0.004l0,0
			c0.497,0.492,0.497,1.292,0.004,1.784l0,0c-0.244,0.249-0.568,0.375-0.892,0.375l0,0C62.896,38.201,62.576,38.079,62.327,37.83z
			 M66.78,33.356c-0.492-0.492-0.497-1.292-0.004-1.784l0,0c0.492-0.497,1.292-0.497,1.784-0.004l0,0
			c0.497,0.493,0.497,1.292,0.004,1.785l0,0c-0.244,0.248-0.568,0.375-0.893,0.375l0,0C67.349,33.727,67.029,33.6,66.78,33.356z"/>
	</g>
	<g opacity="0.05">
		<path fill="#EFEFEF" d="M31.633,68.672c-0.493-0.493-0.493-1.292-0.004-1.785l0,0c0.492-0.497,1.292-0.497,1.789-0.004l0,0
			c0.492,0.493,0.497,1.292,0.004,1.785l0,0c-0.249,0.249-0.573,0.371-0.896,0.371l0,0C32.201,69.039,31.881,68.917,31.633,68.672z
			 M36.085,64.198c-0.493-0.492-0.493-1.292-0.004-1.785l0,0c0.493-0.497,1.292-0.497,1.789-0.004l0,0
			c0.492,0.492,0.497,1.292,0.004,1.784l0,0c-0.249,0.249-0.573,0.371-0.897,0.371l0,0C36.658,64.564,36.334,64.442,36.085,64.198z"
			/>
	</g>
	<g opacity="0.05">
		<path fill="#EFEFEF" d="M7.369,92.814c-0.497-0.493-0.497-1.292-0.004-1.789l0,0c0.492-0.493,1.292-0.497,1.784-0.004l0,0
			c0.497,0.493,0.497,1.292,0.004,1.789l0,0c-0.244,0.249-0.568,0.371-0.893,0.371l0,0C7.937,93.18,7.613,93.058,7.369,92.814z
			 M11.822,88.336c-0.493-0.493-0.497-1.288-0.004-1.785l0,0c0.493-0.492,1.292-0.497,1.785-0.004l0,0
			c0.497,0.492,0.497,1.292,0.004,1.784l0,0c-0.244,0.249-0.568,0.375-0.893,0.375l0,0C12.39,88.706,12.066,88.584,11.822,88.336z
			 M16.274,83.862c-0.492-0.493-0.497-1.292-0.004-1.785l0,0c0.492-0.497,1.292-0.497,1.784-0.004l0,0
			c0.497,0.492,0.497,1.292,0.004,1.784l0,0c-0.244,0.249-0.568,0.375-0.892,0.375l0,0C16.843,84.232,16.523,84.106,16.274,83.862z"
			/>
	</g>
	<g opacity="0.05">
		<path fill="#EFEFEF" d="M2.251,61.172c-0.484-0.501-0.472-1.296,0.029-1.785l0,0c0.501-0.484,1.301-0.476,1.785,0.025l0,0
			c0.484,0.501,0.471,1.301-0.025,1.785l0,0c-0.248,0.24-0.564,0.358-0.879,0.358l0,0C2.828,61.555,2.499,61.429,2.251,61.172z
			 M6.784,56.774c-0.488-0.501-0.476-1.3,0.025-1.785l0,0c0.501-0.484,1.296-0.476,1.784,0.025l0,0
			c0.484,0.501,0.476,1.301-0.025,1.785l0,0c-0.249,0.24-0.564,0.357-0.88,0.357l0,0C7.356,57.157,7.028,57.031,6.784,56.774z
			 M20.37,43.579c-0.488-0.5-0.476-1.3,0.025-1.784l0,0c0.501-0.484,1.3-0.476,1.785,0.025l0,0c0.488,0.5,0.476,1.3-0.025,1.784l0,0
			c-0.244,0.24-0.564,0.358-0.88,0.358l0,0C20.946,43.962,20.618,43.836,20.37,43.579z M24.898,39.181
			c-0.488-0.501-0.476-1.301,0.025-1.785l0,0c0.501-0.484,1.3-0.476,1.784,0.025l0,0c0.488,0.5,0.476,1.3-0.025,1.785l0,0
			c-0.244,0.24-0.564,0.357-0.88,0.357l0,0C25.475,39.564,25.147,39.438,24.898,39.181z M29.427,34.783
			c-0.488-0.5-0.476-1.3,0.025-1.784l0,0c0.501-0.488,1.301-0.476,1.785,0.025l0,0c0.488,0.5,0.476,1.3-0.025,1.784l0,0
			c-0.244,0.24-0.564,0.358-0.88,0.358l0,0C30.004,35.166,29.675,35.04,29.427,34.783z M33.956,30.385
			c-0.484-0.501-0.476-1.301,0.025-1.785l0,0c0.501-0.488,1.301-0.476,1.785,0.025l0,0c0.488,0.501,0.476,1.3-0.025,1.784l0,0
			c-0.244,0.24-0.56,0.358-0.879,0.358l0,0C34.532,30.768,34.204,30.642,33.956,30.385z M38.484,25.986
			c-0.484-0.5-0.476-1.3,0.025-1.785l0,0c0.501-0.488,1.3-0.476,1.785,0.025l0,0c0.488,0.501,0.476,1.301-0.025,1.785l0,0
			c-0.244,0.24-0.56,0.358-0.88,0.358l0,0C39.061,26.37,38.733,26.243,38.484,25.986z"/>
	</g>
	<path opacity="0.05" fill="#EFEFEF" d="M60.023,9.911c-0.514-1.585-1.521-2.907-2.911-3.822c-1.829-1.205-4.144-1.522-6.235-0.844
		c-3.808,1.235-5.901,5.338-4.666,9.146c0.694,2.141,2.307,3.812,4.425,4.583c0.798,0.292,1.633,0.439,2.479,0.439
		c0.759,0,1.514-0.12,2.242-0.356c0.131-0.042,0.26-0.088,0.386-0.137C59.332,17.532,61.212,13.574,60.023,9.911z M50.276,6.64
		c0.863,1.307,0.964,2.232,1.043,2.977c0.019,0.179,0.037,0.345,0.062,0.5c0.128,0.792-0.326,1.937-1.215,3.062
		c-0.892,1.127-2.515,1.336-2.77,1.363c-0.065-0.156-0.131-0.312-0.184-0.474C46.262,11.136,47.621,8.007,50.276,6.64z
		 M50.997,17.986c-1.293-0.471-2.36-1.339-3.084-2.461c0.745-0.137,2.164-0.539,3.079-1.695c1.487-1.879,1.533-3.24,1.429-3.883
		c-0.022-0.137-0.038-0.284-0.054-0.442c-0.083-0.781-0.205-1.841-1.105-3.273c0.605-0.19,1.23-0.291,1.859-0.291
		c1.214,0,2.395,0.354,3.415,1.026c0.83,0.546,1.487,1.271,1.966,2.114c-1.001,0.272-2.395,0.83-2.817,1.884
		c-0.151,0.375-0.371,0.766-0.604,1.179c-0.584,1.039-1.247,2.216-1.016,3.589c0.159,0.943,0.54,1.762,0.876,2.345
		C53.646,18.476,52.261,18.447,50.997,17.986z M55.931,17.686c-0.304-0.5-0.683-1.254-0.83-2.127
		c-0.169-1.007,0.372-1.968,0.896-2.898c0.239-0.425,0.487-0.865,0.663-1.304c0.246-0.613,1.338-1.064,2.287-1.304
		c0.022,0.063,0.056,0.119,0.077,0.183C59.974,13.169,58.625,16.322,55.931,17.686z"/>
	<g opacity="0.05">
		<path fill="#EFEFEF" d="M2.811,164.431c-0.484-0.501-0.476-1.301,0.025-1.785l0,0c0.501-0.488,1.3-0.476,1.789,0.025l0,0
			c0.484,0.501,0.471,1.3-0.029,1.785l0,0c-0.244,0.24-0.56,0.357-0.88,0.357l0,0C3.387,164.814,3.059,164.688,2.811,164.431z"/>
	</g>
	<g opacity="0.05">
		<path fill="#EFEFEF" d="M4.359,25.136c-0.488-0.497-0.476-1.296,0.025-1.785l0,0c0.497-0.484,1.296-0.471,1.785,0.025l0,0
			c0.484,0.501,0.471,1.301-0.025,1.789l0,0C5.896,25.401,5.58,25.52,5.265,25.52l0,0C4.932,25.52,4.604,25.393,4.359,25.136z
			 M8.888,20.738c-0.488-0.5-0.476-1.296,0.025-1.784l0,0c0.5-0.484,1.296-0.472,1.784,0.025l0,0c0.484,0.5,0.472,1.3-0.025,1.789
			l0,0c-0.248,0.236-0.563,0.354-0.879,0.354l0,0C9.46,21.121,9.132,20.995,8.888,20.738z"/>
	</g>
</g>
<g id="Layer_2">
	<g opacity="0.05">
		<path fill="#EFEFEF" d="M13.678,156c-0.347,0-0.629,0.034-0.631-0.313L13,148.627c-0.001-0.169,0.066-0.253,0.186-0.373
			c0.12-0.12,0.285-0.147,0.452-0.145l6.571,0.088l-0.043-6.562c-0.001-0.17,0.066-0.328,0.186-0.447
			c0.12-0.12,0.284-0.178,0.452-0.181l6.571,0.069l-0.042-6.574c-0.001-0.169,0.066-0.331,0.186-0.451
			c0.12-0.119,0.285-0.175,0.452-0.184l7.216,0.073c0.349,0.003,0.628,0.289,0.625,0.638c-0.003,0.349-0.298,0.632-0.638,0.625
			l-6.574-0.066l0.042,6.575c0.001,0.169-0.065,0.332-0.186,0.451c-0.12,0.12-0.286,0.187-0.452,0.184l-6.571-0.068l0.043,6.572
			c0.001,0.169-0.066,0.332-0.186,0.452c-0.12,0.12-0.285,0.182-0.452,0.184l-6.571-0.069l0.043,6.26
			c0.002,0.349-0.278,0.322-0.627,0.322C13.681,156,13.68,156,13.678,156z"/>
	</g>
	<g opacity="0.05">
		<circle fill="#EFEFEF" cx="20.573" cy="9.395" r="2.243"/>
	</g>
	<g opacity="0.05">
		<circle fill="#EFEFEF" cx="47.018" cy="53.237" r="2.243"/>
	</g>
	<g opacity="0.05">
		<circle fill="#EFEFEF" cx="53.682" cy="115.177" r="2.244"/>
	</g>
	<g opacity="0.05">
		<circle fill="#EFEFEF" cx="142.979" cy="28.405" r="2.243"/>
	</g>
	<g opacity="0.05">
		<circle fill="#EFEFEF" cx="158.061" cy="13.324" r="2.243"/>
	</g>
	<g opacity="0.05">
		<circle fill="#EFEFEF" cx="92.053" cy="43.557" r="2.243"/>
	</g>
	<g opacity="0.05">
		<path fill="#EFEFEF" d="M72,26.116l0.1-0.091c-0.036-0.004-0.068-0.018-0.1-0.038V26.116z"/>
		<path fill="#EFEFEF" d="M101.524,2.727c-0.274-0.264-0.743-0.256-1.008,0.018c-0.534,0.553-1.162,0.8-2.034,0.8
			c-0.513,0-1.066-0.082-1.651-0.168c-0.598-0.088-1.215-0.18-1.847-0.18c-1.285,0-2.261,0.392-3.073,1.232
			c-1.503,1.557-1.171,3.361-0.878,4.953c0.275,1.495,0.492,2.676-0.502,3.706c-0.534,0.554-1.162,0.801-2.035,0.801
			c-0.514,0-1.066-0.082-1.652-0.169c-0.597-0.088-1.215-0.18-1.846-0.18c-1.285,0-2.261,0.392-3.072,1.232
			c-1.502,1.556-1.171,3.359-0.879,4.953c0.275,1.495,0.493,2.675-0.502,3.706c-0.534,0.554-1.162,0.798-2.035,0.798
			c-0.513,0-1.066-0.087-1.653-0.174c-0.597-0.088-1.215-0.189-1.845-0.189c-1.285,0-2.262,0.371-3.073,1.212
			c-0.132,0.137-0.203,0.276-0.2,0.466c0.003,0.19,0.081,0.286,0.217,0.418c0.014,0.013,0.029,0.016,0.043,0.024v-0.082
			c0,0,0.021-0.015,0.03-0.036c0.022,0.037,0.041,0.075,0.073,0.106c0.009,0.009,0.021,0.011,0.03,0.02l-0.033,0.03
			c0.028,0.003,0.057,0.007,0.087,0.004c0.084,0.054,0.177,0.089,0.273,0.087c0.094-0.002,0.184-0.039,0.266-0.093
			c0.089,0.005,0.17-0.006,0.238-0.078c0.534-0.554,1.162-0.637,2.036-0.637c0.512,0,1.065,0.082,1.651,0.168
			c0.597,0.088,1.215,0.179,1.846,0.179c1.285,0,2.262-0.392,3.074-1.232c1.503-1.557,1.171-3.362,0.878-4.954
			c-0.274-1.496-0.492-2.677,0.503-3.707c0.534-0.554,1.162-0.8,2.035-0.8c0.512,0,1.065,0.082,1.653,0.168
			c0.597,0.088,1.215,0.179,1.845,0.179c1.285,0,2.261-0.392,3.071-1.231c1.503-1.557,1.171-3.361,0.879-4.954
			c-0.275-1.495-0.492-2.676,0.502-3.706c0.534-0.553,1.162-0.8,2.035-0.8c0.512,0,1.065,0.082,1.651,0.168
			c0.598,0.088,1.216,0.18,1.847,0.18c1.285,0,2.261-0.392,3.072-1.231c0.132-0.137,0.204-0.317,0.2-0.507
			S101.662,2.859,101.524,2.727z"/>
	</g>
	<g opacity="0.05">
		<path fill="#EFEFEF" d="M158.461,52c-0.347,0-0.629-0.155-0.631-0.503l-0.047-7.153c-0.001-0.169,0.066-0.301,0.186-0.42
			c0.12-0.12,0.28-0.163,0.452-0.168l6.571,0.077l-0.043-6.568c-0.001-0.169,0.066-0.331,0.186-0.45
			c0.12-0.12,0.279-0.188,0.452-0.183l6.571,0.069l-0.042-6.575c-0.001-0.169,0.066-0.332,0.186-0.451
			c0.12-0.12,0.29-0.177,0.452-0.185l7.216,0.073c0.349,0.003,0.628,0.376,0.625,0.725C180.59,30.635,180.308,31,179.962,31
			c-0.002,0-0.004,0-0.006,0l-6.574-0.154l0.042,6.531c0.001,0.17-0.066,0.311-0.186,0.43c-0.12,0.119-0.291,0.168-0.452,0.173
			l-6.571-0.074l0.043,6.57c0.001,0.169-0.066,0.331-0.186,0.45c-0.12,0.119-0.29,0.188-0.452,0.183l-6.571-0.069l0.043,6.449
			c0.002,0.349-0.278,0.511-0.627,0.511C158.464,52,158.463,52,158.461,52z"/>
	</g>
	<g opacity="0.05">
		<path fill="#EFEFEF" d="M342.887,7.598c-0.488-0.497-0.479-1.296,0.021-1.785l0,0c0.501-0.488,1.3-0.476,1.785,0.021l0,0
			c0.488,0.5,0.479,1.3-0.021,1.784l0,0c-0.244,0.24-0.564,0.362-0.879,0.362l0,0C343.463,7.981,343.135,7.851,342.887,7.598z"/>
	</g>
	<g opacity="0.05">
		<path fill="#EFEFEF" d="M324.015,26.887c-0.488-0.501-0.476-1.301,0.025-1.789l0,0c0.497-0.484,1.296-0.476,1.785,0.025l0,0
			c0.484,0.497,0.476,1.296-0.021,1.785l0,0c-0.248,0.24-0.568,0.358-0.884,0.358l0,0C324.591,27.266,324.263,27.14,324.015,26.887z
			 M328.535,22.477c-0.488-0.501-0.48-1.296,0.021-1.785l0,0c0.497-0.488,1.296-0.48,1.785,0.021l0,0
			c0.488,0.501,0.48,1.296-0.021,1.785l0,0c-0.249,0.24-0.564,0.362-0.884,0.362l0,0C329.107,22.859,328.779,22.729,328.535,22.477z
			"/>
	</g>
	<g opacity="0.05">
		<path fill="#EFEFEF" d="M285.113,64.438c-0.484-0.5-0.476-1.3,0.025-1.784l0,0c0.497-0.488,1.296-0.48,1.785,0.021l0,0
			c0.488,0.497,0.476,1.296-0.021,1.785l0,0c-0.249,0.24-0.564,0.357-0.884,0.357l0,0C285.689,64.817,285.361,64.691,285.113,64.438
			z M289.633,60.027c-0.488-0.497-0.476-1.296,0.021-1.785l0,0c0.5-0.488,1.301-0.476,1.784,0.021l0,0
			c0.488,0.501,0.48,1.301-0.021,1.785l0,0c-0.244,0.24-0.563,0.362-0.879,0.362l0,0C290.209,60.41,289.881,60.284,289.633,60.027z
			 M294.153,55.621c-0.488-0.5-0.479-1.3,0.021-1.789l0,0c0.497-0.484,1.296-0.476,1.785,0.025l0,0
			c0.488,0.497,0.476,1.296-0.021,1.784l0,0c-0.248,0.24-0.564,0.358-0.884,0.358l0,0C294.726,56,294.397,55.873,294.153,55.621z"/>
	</g>
	<g opacity="0.05">
		<path fill="#EFEFEF" d="M238.517,109.452c-0.488-0.501-0.48-1.296,0.021-1.785l0,0c0.501-0.488,1.296-0.476,1.785,0.021l0,0
			c0.488,0.501,0.476,1.296-0.021,1.785l0,0c-0.244,0.24-0.564,0.362-0.88,0.362l0,0
			C239.089,109.834,238.761,109.704,238.517,109.452z M243.033,105.041c-0.488-0.497-0.476-1.296,0.021-1.785l0,0
			c0.501-0.488,1.3-0.476,1.789,0.021l0,0c0.484,0.5,0.476,1.3-0.025,1.789l0,0c-0.244,0.24-0.56,0.357-0.879,0.357l0,0
			C243.609,105.423,243.281,105.297,243.033,105.041z"/>
	</g>
	<g opacity="0.05">
		<path fill="#EFEFEF" d="M275.5,39.257c-0.488-0.501-0.476-1.3,0.025-1.785l0,0c0.5-0.488,1.3-0.476,1.785,0.025l0,0
			c0.488,0.501,0.476,1.3-0.025,1.785l0,0c-0.244,0.24-0.564,0.357-0.88,0.357l0,0C276.076,39.64,275.748,39.509,275.5,39.257z
			 M284.557,30.46c-0.484-0.501-0.476-1.3,0.025-1.785l0,0c0.501-0.488,1.301-0.476,1.785,0.025l0,0
			c0.488,0.501,0.476,1.3-0.025,1.785l0,0c-0.244,0.24-0.564,0.357-0.88,0.357l0,0C285.134,30.843,284.805,30.713,284.557,30.46z
			 M298.143,17.266c-0.484-0.5-0.476-1.3,0.025-1.784l0,0c0.501-0.488,1.301-0.476,1.789,0.025l0,0
			c0.484,0.501,0.471,1.296-0.03,1.785l0,0c-0.244,0.24-0.56,0.358-0.879,0.358l0,0C298.72,17.649,298.391,17.518,298.143,17.266z
			 M302.672,12.868c-0.484-0.501-0.472-1.301,0.025-1.789l0,0c0.501-0.484,1.3-0.472,1.789,0.029l0,0
			c0.484,0.497,0.472,1.296-0.029,1.785l0,0c-0.244,0.24-0.56,0.357-0.875,0.357l0,0C303.249,13.25,302.92,13.12,302.672,12.868z
			 M307.2,8.469c-0.484-0.5-0.471-1.3,0.03-1.789l0,0c0.497-0.484,1.296-0.472,1.785,0.029l0,0c0.483,0.501,0.471,1.301-0.026,1.785
			l0,0c-0.248,0.24-0.563,0.358-0.879,0.358l0,0C307.777,8.853,307.448,8.722,307.2,8.469z M311.729,4.071
			c-0.484-0.501-0.472-1.301,0.029-1.785l0,0c0.497-0.488,1.296-0.476,1.785,0.025l0,0c0.484,0.5,0.476,1.296-0.025,1.784l0,0
			c-0.248,0.236-0.564,0.358-0.879,0.358l0,0C312.306,4.454,311.978,4.324,311.729,4.071z"/>
	</g>
	<g opacity="0.05">
		<path fill="#EFEFEF" d="M227.422,85.583c-0.484-0.501-0.472-1.301,0.029-1.785l0,0c0.497-0.484,1.296-0.476,1.785,0.025l0,0
			c0.484,0.501,0.471,1.301-0.025,1.789l0,0c-0.248,0.236-0.564,0.354-0.879,0.354l0,0C228.003,85.966,227.67,85.84,227.422,85.583z
			 M231.951,81.185c-0.483-0.501-0.471-1.3,0.03-1.785l0,0c0.497-0.484,1.296-0.476,1.785,0.025l0,0
			c0.484,0.501,0.471,1.3-0.025,1.785l0,0c-0.249,0.24-0.564,0.357-0.88,0.357l0,0C232.532,81.568,232.199,81.442,231.951,81.185z
			 M241.013,72.389c-0.488-0.501-0.476-1.3,0.025-1.785l0,0c0.501-0.488,1.296-0.476,1.785,0.025l0,0
			c0.484,0.5,0.476,1.3-0.025,1.785l0,0c-0.244,0.24-0.564,0.357-0.88,0.357l0,0C241.589,72.771,241.257,72.646,241.013,72.389z
			 M245.541,67.99c-0.488-0.5-0.476-1.3,0.025-1.784l0,0c0.501-0.484,1.301-0.476,1.785,0.025l0,0
			c0.484,0.501,0.475,1.301-0.025,1.785l0,0c-0.244,0.24-0.564,0.358-0.879,0.358l0,0C246.118,68.374,245.79,68.247,245.541,67.99z
			 M259.127,54.796c-0.488-0.501-0.476-1.301,0.025-1.785l0,0c0.501-0.488,1.3-0.476,1.785,0.025l0,0
			c0.488,0.5,0.476,1.3-0.025,1.784l0,0c-0.244,0.24-0.564,0.358-0.88,0.358l0,0C259.704,55.179,259.375,55.053,259.127,54.796z
			 M263.656,50.397c-0.484-0.5-0.476-1.3,0.025-1.785l0,0c0.501-0.488,1.301-0.476,1.785,0.025l0,0
			c0.488,0.501,0.475,1.301-0.025,1.785l0,0c-0.244,0.24-0.56,0.358-0.879,0.358l0,0C264.232,50.781,263.904,50.654,263.656,50.397z
			"/>
	</g>
	<g opacity="0.05">
		<path fill="#EFEFEF" d="M180.843,131.182c-0.484-0.501-0.476-1.301,0.025-1.785l0,0c0.501-0.488,1.3-0.476,1.785,0.025l0,0
			c0.488,0.501,0.475,1.3-0.025,1.785l0,0c-0.244,0.24-0.564,0.357-0.88,0.357l0,0C181.42,131.564,181.092,131.438,180.843,131.182z
			 M185.372,126.783c-0.484-0.501-0.476-1.3,0.025-1.784l0,0c0.5-0.488,1.3-0.476,1.784,0.025l0,0
			c0.488,0.501,0.476,1.301-0.025,1.785l0,0c-0.244,0.24-0.56,0.358-0.88,0.358l0,0C185.949,127.167,185.62,127.04,185.372,126.783z
			 M189.9,122.385c-0.483-0.501-0.476-1.301,0.026-1.785l0,0c0.5-0.488,1.3-0.476,1.784,0.025l0,0c0.488,0.5,0.476,1.3-0.025,1.785
			l0,0c-0.244,0.24-0.56,0.357-0.879,0.357l0,0C190.477,122.768,190.149,122.642,189.9,122.385z M194.43,117.987
			c-0.484-0.501-0.472-1.3,0.025-1.784l0,0c0.501-0.488,1.3-0.476,1.789,0.025l0,0c0.484,0.501,0.472,1.301-0.029,1.785l0,0
			c-0.244,0.24-0.56,0.358-0.875,0.358l0,0C195.006,118.37,194.678,118.239,194.43,117.987z"/>
	</g>
	<g opacity="0.05">
		<path fill="#EFEFEF" d="M236.749,42.308c-0.497-0.492-0.497-1.292-0.004-1.789l0,0c0.492-0.493,1.292-0.497,1.784-0.004l0,0
			c0.492,0.493,0.497,1.292,0.004,1.789l0,0c-0.249,0.244-0.568,0.37-0.897,0.37l0,0C237.317,42.674,236.993,42.552,236.749,42.308z
			 M241.202,37.83c-0.497-0.492-0.497-1.292-0.004-1.785l0,0c0.493-0.492,1.292-0.497,1.784-0.004l0,0
			c0.497,0.492,0.497,1.292,0.004,1.784l0,0c-0.244,0.249-0.568,0.375-0.892,0.375l0,0C241.77,38.201,241.446,38.079,241.202,37.83z
			 M245.655,33.356c-0.492-0.492-0.497-1.292-0.004-1.784l0,0c0.493-0.497,1.292-0.497,1.785-0.004l0,0
			c0.497,0.493,0.497,1.292,0.004,1.785l0,0c-0.244,0.248-0.568,0.375-0.893,0.375l0,0C246.223,33.727,245.903,33.6,245.655,33.356z
			"/>
	</g>
	<g opacity="0.05">
		<path fill="#EFEFEF" d="M210.507,68.672c-0.492-0.493-0.492-1.292-0.004-1.785l0,0c0.492-0.497,1.292-0.497,1.789-0.004l0,0
			c0.492,0.493,0.492,1.292,0.004,1.785l0,0c-0.248,0.249-0.572,0.375-0.896,0.375l0,0
			C211.075,69.042,210.755,68.917,210.507,68.672z M214.96,64.198c-0.493-0.492-0.493-1.292,0-1.785l0,0
			c0.488-0.497,1.288-0.497,1.785-0.004l0,0c0.492,0.488,0.497,1.292,0.004,1.784l0,0c-0.248,0.249-0.572,0.371-0.896,0.371l0,0
			C215.532,64.564,215.208,64.442,214.96,64.198z"/>
	</g>
	<g opacity="0.05">
		<path fill="#EFEFEF" d="M193.752,48.546c-0.484-0.497-0.472-1.301,0.029-1.785l0,0c0.501-0.484,1.296-0.476,1.784,0.025l0,0
			c0.484,0.5,0.472,1.3-0.025,1.784l0,0c-0.248,0.24-0.564,0.358-0.879,0.358l0,0C194.329,48.929,194,48.802,193.752,48.546z
			 M198.28,44.147c-0.484-0.501-0.471-1.3,0.03-1.785l0,0c0.497-0.484,1.296-0.476,1.785,0.025l0,0
			c0.483,0.501,0.471,1.301-0.025,1.785l0,0c-0.249,0.24-0.564,0.358-0.88,0.358l0,0C198.857,44.531,198.529,44.404,198.28,44.147z
			 M202.809,39.75c-0.484-0.501-0.471-1.301,0.029-1.785l0,0c0.501-0.484,1.301-0.476,1.785,0.025l0,0
			c0.484,0.5,0.476,1.3-0.025,1.784l0,0c-0.248,0.24-0.564,0.358-0.879,0.358l0,0C203.386,40.132,203.058,40.006,202.809,39.75z
			 M207.342,35.351c-0.488-0.501-0.476-1.3,0.025-1.785l0,0c0.501-0.488,1.296-0.476,1.785,0.025l0,0
			c0.484,0.501,0.476,1.301-0.025,1.785l0,0c-0.249,0.24-0.564,0.358-0.88,0.358l0,0C207.919,35.734,207.586,35.608,207.342,35.351z
			 M211.871,30.953c-0.488-0.5-0.476-1.3,0.025-1.784l0,0c0.501-0.488,1.301-0.476,1.784,0.025l0,0c0.488,0.5,0.476,1.3-0.025,1.784
			l0,0c-0.244,0.24-0.564,0.358-0.879,0.358l0,0C212.447,31.336,212.119,31.209,211.871,30.953z M216.399,26.555
			c-0.488-0.501-0.476-1.301,0.025-1.785l0,0c0.5-0.488,1.3-0.476,1.785,0.025l0,0c0.488,0.501,0.476,1.3-0.025,1.785l0,0
			c-0.244,0.24-0.564,0.357-0.88,0.357l0,0C216.976,26.938,216.644,26.812,216.399,26.555z M220.928,22.156
			c-0.488-0.5-0.476-1.3,0.025-1.784l0,0c0.501-0.488,1.301-0.476,1.785,0.025l0,0c0.488,0.5,0.476,1.3-0.025,1.784l0,0
			c-0.244,0.24-0.564,0.358-0.879,0.358l0,0C221.504,22.54,221.176,22.413,220.928,22.156z M225.457,17.758
			c-0.484-0.501-0.476-1.301,0.025-1.785l0,0c0.501-0.488,1.3-0.476,1.785,0.025l0,0c0.488,0.501,0.476,1.3-0.025,1.784l0,0
			c-0.244,0.24-0.564,0.358-0.88,0.358l0,0C226.034,18.141,225.705,18.015,225.457,17.758z M229.985,13.36
			c-0.484-0.5-0.476-1.3,0.025-1.785l0,0c0.501-0.488,1.301-0.476,1.784,0.025l0,0c0.488,0.501,0.476,1.301-0.025,1.785l0,0
			c-0.244,0.24-0.56,0.358-0.879,0.358l0,0C230.562,13.743,230.233,13.617,229.985,13.36z"/>
	</g>
	<g opacity="0.05">
		<path fill="#EFEFEF" d="M183.23,25.136c-0.484-0.497-0.472-1.296,0.029-1.785l0,0c0.497-0.484,1.296-0.471,1.784,0.025l0,0
			c0.484,0.501,0.472,1.301-0.025,1.789l0,0c-0.249,0.236-0.564,0.354-0.879,0.354l0,0C183.807,25.52,183.478,25.393,183.23,25.136z
			 M187.763,20.738c-0.488-0.496-0.476-1.296,0.025-1.784l0,0c0.5-0.484,1.296-0.472,1.785,0.025l0,0
			c0.483,0.5,0.471,1.3-0.026,1.789l0,0c-0.248,0.236-0.563,0.354-0.879,0.354l0,0C188.339,21.121,188.007,20.995,187.763,20.738z"
			/>
	</g>
	<g opacity="0.05">
		<path fill="#EFEFEF" d="M188.765,162c-0.347,0-0.629-0.02-0.631-0.367l-0.048-7.086c-0.001-0.169,0.066-0.267,0.186-0.386
			c0.12-0.12,0.3-0.145,0.452-0.152l6.571,0.085l-0.043-6.564c-0.001-0.169,0.066-0.279,0.186-0.398
			c0.118-0.118,0.278-0.131,0.445-0.131c0.002,0,0.004,0,0.007,0l6.571,0.02l-0.042-6.599c-0.001-0.169,0.066-0.224,0.186-0.343
			c0.119-0.118,0.279-0.077,0.446-0.077c0.002,0,0.004,0,0.006,0l7.216-0.046c0.349,0.003,0.628,0.18,0.625,0.529
			c-0.004,0.346-0.286,0.517-0.631,0.517c-0.002,0-0.004,0-0.007,0l-6.574-0.019l0.042,6.6c0.001,0.169-0.066,0.344-0.186,0.463
			c-0.12,0.12-0.274,0.203-0.452,0.19l-6.571-0.065l0.043,6.574c0.001,0.169-0.066,0.333-0.186,0.452
			c-0.12,0.12-0.271,0.188-0.452,0.185l-6.571-0.069l0.044,6.314c0.002,0.348-0.279,0.375-0.627,0.375
			C188.768,162,188.766,162,188.765,162z"/>
	</g>
	<path opacity="0.05" fill="#EFEFEF" d="M210.533,177.393c-0.274-0.265-0.744-0.256-1.007,0.018c-0.534,0.553-1.162,0.8-2.035,0.8
		c-0.513,0-1.065-0.081-1.65-0.167c-0.598-0.088-1.215-0.18-1.847-0.18c-1.285,0-2.261,0.392-3.072,1.232
		c-1.503,1.557-1.171,3.361-0.879,4.953c0.275,1.495,0.493,2.677-0.501,3.706c-0.535,0.554-1.162,0.801-2.035,0.801
		c-0.514,0-1.066-0.082-1.652-0.168c-0.598-0.088-1.215-0.179-1.846-0.179c-1.285,0-2.261,0.391-3.072,1.232
		c-1.503,1.557-1.172,3.361-0.879,4.953c0.275,1.495,0.493,2.677-0.502,3.708c-0.534,0.554-1.162,0.8-2.034,0.8
		c-0.513,0-1.066-0.082-1.654-0.168c-0.597-0.088-1.214-0.179-1.845-0.179c-1.286,0-2.262,0.393-3.073,1.233
		c-0.273,0.283-0.265,0.737,0.017,1.009c0.133,0.129,0.309,0.204,0.495,0.204h0.014c0.191,0,0.368-0.084,0.5-0.221
		c0.535-0.554,1.163-0.804,2.036-0.804c0.511,0,1.063,0.081,1.65,0.167c0.597,0.088,1.215,0.179,1.847,0.179
		c1.285,0,2.262-0.392,3.073-1.232c1.503-1.557,1.171-3.361,0.879-4.953c-0.274-1.496-0.492-2.677,0.503-3.707
		c0.535-0.554,1.162-0.801,2.035-0.801c0.513,0,1.065,0.082,1.653,0.168c0.597,0.088,1.214,0.179,1.844,0.179
		c1.285,0,2.261-0.392,3.072-1.232c1.502-1.556,1.171-3.36,0.879-4.954c-0.275-1.494-0.493-2.675,0.502-3.705
		c0.534-0.554,1.162-0.801,2.035-0.801c0.512,0,1.064,0.082,1.65,0.168c0.598,0.088,1.217,0.18,1.848,0.18
		c1.285,0,2.261-0.391,3.072-1.231C210.823,178.117,210.815,177.665,210.533,177.393z M181,200.572c0,0,0.026-0.019,0.032-0.045
		c0.023,0.04,0.044,0.081,0.079,0.114c0.008,0.008,0.019,0.01,0.027,0.018L181,200.782V200.572z"/>
	<g opacity="0.05">
		<circle fill="#EFEFEF" cx="199.448" cy="9.395" r="2.243"/>
	</g>
	<g opacity="0.05">
		<circle fill="#EFEFEF" cx="225.893" cy="53.237" r="2.243"/>
	</g>
	<g opacity="0.05">
		<circle fill="#EFEFEF" cx="232.557" cy="115.177" r="2.244"/>
	</g>
	<g opacity="0.05">
		<circle fill="#EFEFEF" cx="336.935" cy="13.324" r="2.244"/>
	</g>
	<g opacity="0.05">
		<circle fill="#EFEFEF" cx="270.927" cy="43.557" r="2.243"/>
	</g>
	<path opacity="0.05" fill="#EFEFEF" d="M222.141,96.521l-1.395-1.395l0.733-0.733c0.325-0.325,0.325-0.855,0-1.18l-1.611-1.611
		c-0.325-0.324-0.854-0.323-1.18,0.001l-0.733,0.733l-1.396-1.395c-0.324-0.325-0.854-0.326-1.18,0l-1.395,1.395l-0.734-0.733
		c-0.315-0.314-0.864-0.315-1.18,0l-1.61,1.61c-0.158,0.157-0.245,0.367-0.245,0.59s0.087,0.432,0.245,0.59l2.719,2.719
		l-6.474,6.473l-2.718-2.718c-0.315-0.314-0.865-0.315-1.18,0l-1.611,1.61c-0.325,0.325-0.325,0.855,0,1.181l0.733,0.733
		l-1.395,1.395c-0.325,0.325-0.326,0.854,0,1.181l1.395,1.395l-0.733,0.733c-0.158,0.158-0.245,0.368-0.245,0.591
		c0,0.223,0.087,0.432,0.245,0.59l1.61,1.61c0.163,0.162,0.376,0.243,0.59,0.243c0.213,0,0.427-0.081,0.59-0.244l0.733-0.733
		l1.394,1.393c0.157,0.159,0.367,0.246,0.591,0.246c0.224,0,0.433-0.087,0.59-0.245l1.395-1.395l0.734,0.733
		c0.157,0.157,0.367,0.244,0.589,0.244s0.432-0.087,0.59-0.245l1.608-1.609c0.159-0.157,0.246-0.367,0.246-0.591
		c0-0.224-0.087-0.434-0.245-0.591l-2.718-2.719l6.474-6.474l2.719,2.719c0.158,0.157,0.367,0.244,0.59,0.244
		c0.223,0,0.432-0.086,0.591-0.245l1.61-1.611c0.325-0.325,0.325-0.854,0-1.181l-0.732-0.732l1.396-1.396
		C222.465,97.375,222.465,96.847,222.141,96.521z M219.278,92.622l1.18,1.18l-0.519,0.518l-1.18-1.18L219.278,92.622z
		 M203.397,110.865l-1.18-1.18l0.518-0.518l1.181,1.18L203.397,110.865z M206.706,111.526l-5.15-5.15l1.18-1.18l5.151,5.15
		L206.706,111.526z M210.015,110.864l-7.798-7.797l1.181-1.18l7.796,7.798L210.015,110.864z M208.69,105.57l-1.18-1.18l6.474-6.474
		l1.18,1.18L208.69,105.57z M219.278,101.6l-7.797-7.798l1.18-1.18l7.797,7.798L219.278,101.6z M219.94,98.291l-5.15-5.15l1.18-1.18
		l5.151,5.15L219.94,98.291z"/>
	<path opacity="0.05" fill="#EFEFEF" d="M280.399,2.727c-0.274-0.265-0.744-0.256-1.007,0.018c-0.534,0.553-1.162,0.8-2.035,0.8
		c-0.513,0-1.066-0.082-1.651-0.168c-0.598-0.088-1.216-0.18-1.847-0.18c-1.285,0-2.261,0.392-3.072,1.232
		c-1.503,1.557-1.171,3.361-0.879,4.953c0.275,1.495,0.493,2.676-0.501,3.706c-0.535,0.554-1.162,0.801-2.036,0.801
		c-0.513,0-1.066-0.082-1.652-0.169c-0.597-0.088-1.214-0.18-1.845-0.18c-1.285,0-2.261,0.392-3.072,1.232
		c-1.503,1.557-1.172,3.36-0.879,4.953c0.275,1.495,0.493,2.675-0.502,3.706c-0.534,0.554-1.162,0.798-2.035,0.798
		c-0.513,0-1.066-0.087-1.654-0.174c-0.597-0.088-1.214-0.189-1.845-0.189c-1.285,0-2.262,0.371-3.073,1.212
		c-0.132,0.137-0.203,0.276-0.2,0.466c0.003,0.19,0.081,0.286,0.218,0.418c0.05,0.049,0.108,0.061,0.169,0.063V25.99
		c0.019,0.017,0.041,0.026,0.062,0.039c-0.021,0.002-0.041-0.002-0.062-0.003v0.09l0.066-0.083c0.083,0.051,0.174,0.085,0.269,0.083
		c0.094-0.002,0.184-0.039,0.266-0.093c0.088,0.005,0.17-0.006,0.238-0.078c0.535-0.554,1.163-0.637,2.036-0.637
		c0.512,0,1.065,0.082,1.651,0.168c0.597,0.088,1.215,0.179,1.846,0.179c1.286,0,2.262-0.392,3.074-1.232
		c1.503-1.557,1.171-3.361,0.878-4.954c-0.274-1.496-0.491-2.677,0.503-3.707c0.535-0.554,1.162-0.8,2.035-0.8
		c0.512,0,1.065,0.082,1.653,0.168c0.597,0.088,1.214,0.179,1.845,0.179c1.285,0,2.261-0.392,3.071-1.231
		c1.503-1.556,1.171-3.361,0.879-4.954c-0.275-1.495-0.494-2.676,0.501-3.706c0.535-0.553,1.162-0.8,2.035-0.8
		c0.512,0,1.064,0.082,1.65,0.168c0.598,0.088,1.216,0.18,1.848,0.18c1.285,0,2.261-0.392,3.072-1.232
		C280.689,3.452,280.682,3,280.399,2.727z"/>
	<g opacity="0.05">
		<path fill="#EFEFEF" d="M53.169,154.881c-0.492-0.492-0.488-1.292,0.004-1.785l0,0c0.497-0.492,1.296-0.488,1.789,0.004l0,0
			c0.488,0.497,0.488,1.296-0.008,1.789l0,0c-0.244,0.244-0.568,0.366-0.888,0.366l0,0
			C53.741,155.256,53.413,155.129,53.169,154.881z M57.647,150.433c-0.493-0.497-0.488-1.292,0.004-1.784l0,0
			c0.497-0.493,1.296-0.488,1.789,0.004l0,0c0.488,0.497,0.488,1.296-0.008,1.789l0,0c-0.244,0.244-0.568,0.366-0.888,0.366l0,0
			C58.22,150.807,57.896,150.681,57.647,150.433z M62.125,145.984c-0.488-0.497-0.488-1.292,0.008-1.785l0,0
			c0.492-0.492,1.292-0.488,1.785,0.004l0,0c0.492,0.497,0.488,1.296-0.004,1.789l0,0c-0.248,0.244-0.568,0.366-0.892,0.366l0,0
			C62.698,146.358,62.374,146.232,62.125,145.984z M66.608,141.535c-0.493-0.492-0.488-1.292,0.004-1.785l0,0
			c0.497-0.492,1.296-0.488,1.785,0.004l0,0c0.493,0.497,0.488,1.296-0.004,1.789l0,0c-0.248,0.244-0.568,0.366-0.888,0.366l0,0
			C67.18,141.91,66.852,141.784,66.608,141.535z M71.086,137.086c-0.493-0.497-0.488-1.296,0.004-1.785l0,0
			c0.497-0.492,1.296-0.488,1.789,0.004l0,0c0.488,0.497,0.488,1.296-0.008,1.789l0,0c-0.244,0.244-0.568,0.366-0.888,0.366l0,0
			C71.658,137.461,71.334,137.334,71.086,137.086z M75.564,132.638c-0.488-0.497-0.488-1.292,0.009-1.784l0,0
			c0.492-0.493,1.292-0.488,1.784,0.004l0,0c0.493,0.497,0.488,1.296-0.004,1.785l0,0c-0.249,0.248-0.568,0.37-0.893,0.37l0,0
			C76.136,133.012,75.812,132.886,75.564,132.638z M102.441,105.945c-0.492-0.492-0.488-1.296,0.009-1.785l0,0
			c0.492-0.492,1.292-0.488,1.784,0.004l0,0c0.493,0.497,0.488,1.296-0.008,1.785l0,0c-0.244,0.249-0.568,0.371-0.888,0.371l0,0
			C103.014,106.32,102.69,106.194,102.441,105.945z M106.92,101.497c-0.488-0.493-0.488-1.296,0.008-1.785l0,0
			c0.492-0.493,1.292-0.488,1.784,0.004l0,0c0.493,0.497,0.488,1.296-0.004,1.789l0,0c-0.248,0.244-0.568,0.366-0.892,0.366l0,0
			C107.492,101.871,107.168,101.745,106.92,101.497z M111.402,97.048c-0.493-0.497-0.493-1.292,0.004-1.784l0,0
			c0.497-0.493,1.296-0.488,1.785,0.004l0,0c0.492,0.497,0.488,1.296-0.004,1.789l0,0c-0.248,0.244-0.568,0.366-0.892,0.366l0,0
			C111.97,97.423,111.646,97.296,111.402,97.048z M115.88,92.599c-0.492-0.497-0.488-1.292,0.004-1.784l0,0
			c0.497-0.493,1.296-0.488,1.789,0.004l0,0c0.488,0.497,0.488,1.296-0.009,1.785l0,0c-0.244,0.249-0.568,0.371-0.888,0.371l0,0
			C116.453,92.974,116.128,92.848,115.88,92.599z M129.319,79.253c-0.493-0.497-0.488-1.292,0.004-1.785l0,0
			c0.497-0.493,1.296-0.488,1.789,0.004l0,0c0.488,0.496,0.488,1.296-0.008,1.789l0,0c-0.244,0.244-0.568,0.366-0.888,0.366l0,0
			C129.892,79.628,129.563,79.501,129.319,79.253z M133.797,74.804c-0.493-0.496-0.488-1.292,0.004-1.784l0,0
			c0.497-0.493,1.296-0.488,1.789,0.004l0,0c0.488,0.497,0.488,1.296-0.008,1.785l0,0c-0.244,0.244-0.568,0.371-0.888,0.371l0,0
			C134.37,75.179,134.045,75.053,133.797,74.804z M138.275,70.356c-0.488-0.497-0.488-1.296,0.008-1.785l0,0
			c0.493-0.493,1.292-0.488,1.785,0.004l0,0c0.493,0.497,0.488,1.296-0.004,1.785l0,0c-0.248,0.249-0.568,0.371-0.892,0.371l0,0
			C138.848,70.73,138.523,70.604,138.275,70.356z M142.758,65.907c-0.493-0.497-0.488-1.296,0.004-1.785l0,0
			c0.497-0.493,1.296-0.488,1.784,0.004l0,0c0.493,0.496,0.488,1.296-0.004,1.789l0,0c-0.249,0.244-0.568,0.366-0.888,0.366l0,0
			C143.326,66.282,143.002,66.155,142.758,65.907z M147.236,61.458c-0.492-0.496-0.488-1.296,0.009-1.784l0,0
			c0.492-0.492,1.292-0.492,1.784,0.004l0,0c0.493,0.497,0.488,1.296-0.008,1.785l0,0c-0.244,0.249-0.568,0.371-0.888,0.371l0,0
			C147.808,61.833,147.484,61.707,147.236,61.458z"/>
	</g>
	<g opacity="0.05">
		<path fill="#EFEFEF" d="M9.457,198.291c-0.488-0.493-0.488-1.292,0.008-1.784l0,0c0.492-0.493,1.292-0.488,1.784,0.008l0,0
			c0.493,0.493,0.488,1.292-0.004,1.785l0,0c-0.249,0.244-0.568,0.366-0.892,0.366l0,0C10.029,198.666,9.705,198.543,9.457,198.291z
			 M13.939,193.847c-0.493-0.497-0.493-1.296,0.004-1.789l0,0c0.497-0.488,1.296-0.488,1.785,0.008l0,0
			c0.492,0.493,0.488,1.292-0.004,1.785l0,0c-0.248,0.244-0.568,0.366-0.888,0.366l0,0
			C14.507,194.217,14.183,194.095,13.939,193.847z M18.417,189.394c-0.493-0.492-0.488-1.292,0.008-1.785l0,0
			c0.493-0.488,1.292-0.488,1.785,0.009l0,0c0.492,0.492,0.488,1.292-0.009,1.784l0,0c-0.244,0.244-0.568,0.366-0.888,0.366l0,0
			C18.989,189.768,18.665,189.646,18.417,189.394z M22.895,184.945c-0.488-0.493-0.488-1.292,0.008-1.784l0,0
			c0.493-0.493,1.292-0.488,1.785,0.008l0,0c0.493,0.492,0.488,1.292-0.008,1.785l0,0c-0.244,0.244-0.564,0.366-0.888,0.366l0,0
			C23.468,185.32,23.144,185.193,22.895,184.945z M27.377,180.496c-0.493-0.492-0.488-1.292,0.004-1.784l0,0
			c0.497-0.493,1.296-0.488,1.784,0.008l0,0c0.493,0.493,0.488,1.292-0.004,1.785l0,0c-0.249,0.244-0.568,0.366-0.893,0.366l0,0
			C27.945,180.871,27.622,180.745,27.377,180.496z M31.855,176.047c-0.492-0.492-0.488-1.292,0.004-1.785l0,0
			c0.497-0.488,1.296-0.488,1.789,0.009l0,0c0.488,0.492,0.488,1.292-0.008,1.784l0,0c-0.244,0.244-0.568,0.366-0.888,0.366l0,0
			C32.428,176.422,32.1,176.3,31.855,176.047z M36.334,171.599c-0.493-0.492-0.488-1.292,0.008-1.785l0,0
			c0.492-0.492,1.292-0.488,1.784,0.009l0,0c0.493,0.492,0.488,1.292-0.008,1.785l0,0c-0.244,0.244-0.564,0.366-0.888,0.366l0,0
			C36.906,171.974,36.582,171.847,36.334,171.599z"/>
	</g>
	<g opacity="0.05">
		<path fill="#EFEFEF" d="M148.612,93.761c-0.492-0.492-0.488-1.292,0.004-1.784l0,0c0.497-0.493,1.296-0.488,1.789,0.004l0,0
			c0.488,0.497,0.488,1.296-0.009,1.789l0,0c-0.244,0.244-0.568,0.366-0.888,0.366l0,0C149.185,94.136,148.86,94.009,148.612,93.761
			z M153.09,89.312c-0.492-0.497-0.488-1.292,0.009-1.784l0,0c0.492-0.493,1.292-0.488,1.784,0.004l0,0
			c0.493,0.497,0.488,1.296-0.008,1.789l0,0c-0.244,0.244-0.568,0.366-0.888,0.366l0,0C153.663,89.687,153.339,89.561,153.09,89.312
			z M157.568,84.864c-0.488-0.493-0.488-1.292,0.009-1.785l0,0c0.492-0.493,1.292-0.488,1.785,0.004l0,0
			c0.492,0.496,0.488,1.296-0.004,1.789l0,0c-0.249,0.244-0.568,0.366-0.892,0.366l0,0
			C158.141,85.238,157.817,85.112,157.568,84.864z M162.051,80.415c-0.493-0.492-0.488-1.292,0.004-1.784l0,0
			c0.497-0.493,1.296-0.488,1.789,0.004l0,0c0.488,0.497,0.488,1.296-0.008,1.789l0,0c-0.248,0.244-0.568,0.366-0.888,0.366l0,0
			C162.619,80.79,162.295,80.663,162.051,80.415z M166.529,75.966c-0.493-0.493-0.488-1.292,0.004-1.785l0,0
			c0.497-0.493,1.296-0.488,1.789,0.004l0,0c0.492,0.497,0.488,1.296-0.008,1.789l0,0c-0.244,0.244-0.568,0.366-0.888,0.366l0,0
			C167.102,76.341,166.777,76.214,166.529,75.966z M171.007,71.518c-0.488-0.497-0.488-1.296,0.008-1.785l0,0
			c0.493-0.493,1.292-0.488,1.785,0.004l0,0c0.493,0.497,0.488,1.296-0.004,1.789l0,0c-0.248,0.244-0.568,0.366-0.892,0.366l0,0
			C171.58,71.892,171.256,71.766,171.007,71.518z M175.49,67.069c-0.493-0.493-0.488-1.292,0.004-1.785l0,0
			c0.497-0.492,1.296-0.488,1.784,0.004l0,0c0.493,0.497,0.488,1.296-0.004,1.789l0,0c-0.249,0.244-0.568,0.366-0.888,0.366l0,0
			C176.058,67.443,175.734,67.317,175.49,67.069z M179.968,62.62c-0.492-0.493-0.488-1.292,0.004-1.785l0,0
			c0.497-0.493,1.296-0.488,1.789,0.004l0,0c0.488,0.496,0.488,1.296-0.008,1.789l0,0c-0.244,0.244-0.568,0.366-0.888,0.366l0,0
			C180.541,62.995,180.216,62.868,179.968,62.62z"/>
	</g>
	<g opacity="0.05">
		<path fill="#EFEFEF" d="M93.073,148.921c-0.492-0.492-0.492-1.292,0.004-1.784l0,0c0.492-0.493,1.292-0.488,1.784,0.004l0,0
			c0.493,0.497,0.488,1.296-0.004,1.789l0,0c-0.249,0.244-0.568,0.366-0.892,0.366l0,0C93.641,149.296,93.317,149.17,93.073,148.921
			z M97.551,144.473c-0.493-0.492-0.488-1.292,0.004-1.784l0,0c0.497-0.492,1.296-0.488,1.789,0.004l0,0
			c0.488,0.496,0.488,1.296-0.008,1.789l0,0c-0.244,0.244-0.568,0.366-0.888,0.366l0,0
			C98.124,144.848,97.799,144.721,97.551,144.473z M102.029,140.024c-0.493-0.493-0.488-1.292,0.008-1.785l0,0
			c0.492-0.493,1.292-0.488,1.785,0.004l0,0c0.492,0.497,0.488,1.296-0.009,1.789l0,0c-0.244,0.244-0.568,0.366-0.888,0.366l0,0
			C102.602,140.399,102.277,140.272,102.029,140.024z M106.507,135.576c-0.488-0.493-0.488-1.292,0.008-1.785l0,0
			c0.493-0.493,1.292-0.488,1.785,0.004l0,0c0.493,0.497,0.488,1.296-0.004,1.789l0,0c-0.248,0.244-0.568,0.366-0.892,0.366l0,0
			C107.08,135.95,106.755,135.824,106.507,135.576z"/>
	</g>
	<g opacity="0.05">
		<path fill="#EFEFEF" d="M4.389,237c-0.493-0.497-0.488-1.292,0.004-1.785l0,0c0.497-0.492,1.296-0.488,1.785,0.004l0,0
			c0.492,0.497,0.492,1.296-0.004,1.785l0,0c-0.244,0.248-0.568,0.37-0.888,0.37l0,0C4.961,237.374,4.633,237.248,4.389,237z
			 M8.867,232.551c-0.493-0.497-0.488-1.296,0.008-1.785l0,0c0.493-0.492,1.292-0.488,1.785,0.004l0,0
			c0.488,0.497,0.488,1.296-0.008,1.784l0,0c-0.245,0.249-0.568,0.371-0.888,0.371l0,0C9.439,232.925,9.115,232.799,8.867,232.551z
			 M13.345,228.102c-0.488-0.497-0.488-1.296,0.008-1.785l0,0c0.493-0.493,1.292-0.488,1.785,0.004l0,0
			c0.493,0.497,0.488,1.296-0.004,1.784l0,0c-0.248,0.249-0.568,0.371-0.892,0.371l0,0C13.917,228.477,13.593,228.35,13.345,228.102
			z M26.784,214.756c-0.493-0.497-0.488-1.296,0.008-1.789l0,0c0.492-0.488,1.292-0.488,1.784,0.008l0,0
			c0.493,0.497,0.488,1.296-0.004,1.784l0,0c-0.249,0.244-0.568,0.366-0.892,0.366l0,0
			C27.356,215.126,27.032,215.004,26.784,214.756z M31.262,210.308c-0.488-0.497-0.488-1.296,0.008-1.785l0,0
			c0.493-0.493,1.292-0.488,1.785,0.004l0,0c0.492,0.497,0.488,1.296-0.004,1.785l0,0c-0.248,0.244-0.568,0.366-0.892,0.366l0,0
			C31.834,210.678,31.511,210.556,31.262,210.308z M35.745,205.858c-0.492-0.497-0.488-1.296,0.004-1.785l0,0
			c0.497-0.492,1.296-0.488,1.789,0.004l0,0c0.488,0.497,0.488,1.296-0.009,1.785l0,0c-0.244,0.244-0.568,0.366-0.888,0.366l0,0
			C36.317,206.229,35.989,206.107,35.745,205.858z M40.223,201.41c-0.492-0.497-0.488-1.296,0.008-1.785l0,0
			c0.493-0.492,1.292-0.492,1.785,0.004l0,0c0.493,0.493,0.488,1.296-0.008,1.784l0,0c-0.244,0.244-0.568,0.366-0.888,0.366l0,0
			C40.795,201.78,40.471,201.658,40.223,201.41z M44.701,196.961c-0.488-0.497-0.488-1.296,0.009-1.784l0,0
			c0.492-0.493,1.292-0.488,1.785,0.004l0,0c0.492,0.497,0.488,1.296-0.004,1.785l0,0c-0.249,0.244-0.568,0.366-0.893,0.366l0,0
			C45.273,197.332,44.949,197.209,44.701,196.961z M49.183,192.512c-0.492-0.497-0.492-1.296,0.004-1.785l0,0
			c0.497-0.492,1.296-0.492,1.785,0.004l0,0c0.492,0.497,0.488,1.296-0.004,1.785l0,0c-0.248,0.244-0.568,0.366-0.888,0.366l0,0
			C49.751,192.883,49.427,192.761,49.183,192.512z"/>
	</g>
	<g opacity="0.05">
		<path fill="#EFEFEF" d="M147.754,131.203c-0.493-0.492-0.493-1.292,0.004-1.785l0,0c0.497-0.492,1.292-0.488,1.785,0.004l0,0
			c0.492,0.497,0.488,1.296-0.004,1.789l0,0c-0.248,0.244-0.568,0.366-0.892,0.366l0,0
			C148.322,131.577,147.998,131.451,147.754,131.203z M152.232,126.754c-0.493-0.493-0.488-1.292,0.004-1.785l0,0
			c0.497-0.493,1.296-0.488,1.789,0.009l0,0c0.488,0.492,0.488,1.292-0.009,1.784l0,0c-0.244,0.244-0.568,0.366-0.888,0.366l0,0
			C152.804,127.128,152.476,127.002,152.232,126.754z M156.71,122.305c-0.492-0.492-0.488-1.292,0.008-1.785l0,0
			c0.493-0.492,1.292-0.488,1.785,0.004l0,0c0.493,0.497,0.488,1.296-0.008,1.789l0,0c-0.244,0.244-0.568,0.366-0.888,0.366l0,0
			C157.282,122.68,156.958,122.553,156.71,122.305z M161.188,117.856c-0.488-0.493-0.488-1.292,0.009-1.785l0,0
			c0.497-0.492,1.292-0.488,1.785,0.004l0,0c0.492,0.497,0.488,1.296-0.004,1.789l0,0c-0.249,0.244-0.568,0.366-0.893,0.366l0,0
			C161.761,118.231,161.437,118.105,161.188,117.856z M165.67,113.408c-0.492-0.492-0.488-1.292,0.004-1.785l0,0
			c0.497-0.492,1.296-0.488,1.785,0.004l0,0c0.492,0.497,0.492,1.296-0.004,1.789l0,0c-0.248,0.244-0.568,0.366-0.888,0.366l0,0
			C166.243,113.782,165.915,113.656,165.67,113.408z M170.149,108.959c-0.493-0.492-0.488-1.292,0.004-1.785l0,0
			c0.497-0.492,1.296-0.488,1.789,0.004l0,0c0.488,0.497,0.488,1.296-0.008,1.789l0,0c-0.244,0.244-0.568,0.366-0.889,0.366l0,0
			C170.721,109.333,170.397,109.208,170.149,108.959z M174.627,104.51c-0.492-0.493-0.488-1.292,0.008-1.785l0,0
			c0.493-0.492,1.292-0.488,1.785,0.004l0,0c0.492,0.497,0.488,1.296-0.004,1.789l0,0c-0.248,0.244-0.568,0.366-0.892,0.366l0,0
			C175.199,104.885,174.875,104.759,174.627,104.51z M179.109,100.062c-0.493-0.492-0.493-1.292,0.004-1.785l0,0
			c0.497-0.492,1.296-0.488,1.785,0.004l0,0c0.493,0.497,0.488,1.296-0.004,1.789l0,0c-0.249,0.244-0.568,0.366-0.893,0.366l0,0
			C179.677,100.436,179.354,100.31,179.109,100.062z M183.587,95.613c-0.493-0.493-0.488-1.292,0.004-1.785l0,0
			c0.497-0.492,1.296-0.488,1.789,0.004l0,0c0.488,0.497,0.488,1.296-0.009,1.789l0,0c-0.244,0.244-0.568,0.366-0.888,0.366l0,0
			C184.16,95.987,183.832,95.861,183.587,95.613z"/>
	</g>
	<g opacity="0.05">
		<path fill="#EFEFEF" d="M29.078,249.066c-0.488-0.497-0.488-1.296,0.008-1.785l0,0c0.493-0.493,1.292-0.493,1.785,0.004l0,0
			c0.493,0.497,0.488,1.296-0.004,1.785l0,0c-0.248,0.244-0.568,0.366-0.892,0.366l0,0C29.65,249.437,29.326,249.314,29.078,249.066
			z M33.56,244.617c-0.492-0.496-0.492-1.296,0.004-1.784l0,0c0.497-0.493,1.296-0.493,1.785,0.004l0,0
			c0.492,0.497,0.488,1.292-0.004,1.785l0,0c-0.249,0.244-0.568,0.366-0.888,0.366l0,0C34.128,244.988,33.804,244.866,33.56,244.617
			z M38.038,240.168c-0.492-0.497-0.488-1.296,0.004-1.789l0,0c0.497-0.488,1.296-0.488,1.789,0.009l0,0
			c0.488,0.492,0.488,1.292-0.009,1.785l0,0c-0.244,0.244-0.568,0.366-0.888,0.366l0,0
			C38.611,240.539,38.287,240.417,38.038,240.168z M42.517,235.72c-0.493-0.497-0.488-1.296,0.008-1.789l0,0
			c0.493-0.493,1.292-0.488,1.785,0.008l0,0c0.492,0.493,0.488,1.292-0.008,1.785l0,0c-0.244,0.244-0.568,0.366-0.888,0.366l0,0
			C43.089,236.09,42.765,235.968,42.517,235.72z M46.995,231.271c-0.488-0.497-0.488-1.296,0.008-1.789l0,0
			c0.493-0.488,1.296-0.488,1.785,0.008l0,0c0.492,0.493,0.488,1.296-0.004,1.785l0,0c-0.249,0.244-0.568,0.366-0.893,0.366l0,0
			C47.567,231.642,47.243,231.52,46.995,231.271z M73.872,204.575c-0.488-0.492-0.488-1.292,0.008-1.784l0,0
			c0.493-0.488,1.292-0.488,1.785,0.008l0,0c0.493,0.493,0.488,1.292-0.004,1.785l0,0c-0.249,0.244-0.568,0.366-0.893,0.366l0,0
			C74.444,204.949,74.121,204.827,73.872,204.575z M78.354,200.126c-0.492-0.492-0.488-1.292,0.004-1.785l0,0
			c0.497-0.492,1.292-0.488,1.784,0.009l0,0c0.493,0.492,0.488,1.292-0.004,1.784l0,0c-0.249,0.244-0.568,0.366-0.892,0.366l0,0
			C78.923,200.5,78.599,200.378,78.354,200.126z M82.833,195.677c-0.492-0.492-0.488-1.292,0.004-1.784l0,0
			c0.497-0.493,1.296-0.488,1.789,0.008l0,0c0.488,0.492,0.488,1.292-0.008,1.785l0,0c-0.244,0.244-0.568,0.366-0.888,0.366l0,0
			C83.405,196.052,83.077,195.925,82.833,195.677z M87.311,191.233c-0.493-0.497-0.488-1.296,0.008-1.789l0,0
			c0.493-0.488,1.292-0.488,1.785,0.008l0,0c0.492,0.493,0.488,1.292-0.009,1.785l0,0c-0.244,0.244-0.564,0.366-0.888,0.366l0,0
			C87.883,191.603,87.559,191.481,87.311,191.233z M91.789,186.78c-0.488-0.492-0.488-1.292,0.008-1.785l0,0
			c0.493-0.492,1.292-0.488,1.785,0.009l0,0c0.492,0.493,0.488,1.292-0.004,1.784l0,0c-0.248,0.244-0.568,0.366-0.892,0.366l0,0
			C92.361,187.154,92.038,187.032,91.789,186.78z M105.228,173.434c-0.493-0.492-0.488-1.292,0.008-1.784l0,0
			c0.492-0.493,1.292-0.488,1.785,0.008l0,0c0.492,0.493,0.488,1.292-0.008,1.784l0,0c-0.245,0.244-0.568,0.366-0.889,0.366l0,0
			C105.8,173.808,105.476,173.686,105.228,173.434z M109.71,168.985c-0.492-0.492-0.492-1.292,0.004-1.785l0,0
			c0.497-0.492,1.296-0.488,1.785,0.009l0,0c0.492,0.492,0.492,1.292-0.004,1.785l0,0c-0.249,0.244-0.568,0.366-0.892,0.366l0,0
			C110.278,169.36,109.954,169.233,109.71,168.985z M114.188,164.537c-0.493-0.493-0.488-1.292,0.004-1.785l0,0
			c0.497-0.492,1.296-0.488,1.789,0.008l0,0c0.488,0.492,0.488,1.292-0.009,1.785l0,0c-0.244,0.244-0.568,0.366-0.888,0.366l0,0
			C114.761,164.911,114.437,164.785,114.188,164.537z M118.667,160.088c-0.492-0.493-0.488-1.292,0.008-1.785l0,0
			c0.493-0.493,1.292-0.488,1.785,0.008l0,0c0.492,0.493,0.488,1.292-0.008,1.784l0,0c-0.244,0.244-0.568,0.366-0.888,0.366l0,0
			C119.239,160.462,118.915,160.336,118.667,160.088z"/>
	</g>
	<g opacity="0.05">
		<path fill="#EFEFEF" d="M85.038,227.159c-0.492-0.493-0.488-1.292,0.004-1.784l0,0c0.497-0.493,1.296-0.488,1.784,0.008l0,0
			c0.493,0.492,0.493,1.292-0.004,1.784l0,0c-0.249,0.244-0.568,0.366-0.888,0.366l0,0
			C85.606,227.534,85.282,227.408,85.038,227.159z M89.516,222.71c-0.492-0.492-0.488-1.292,0.004-1.785l0,0
			c0.497-0.492,1.296-0.488,1.789,0.004l0,0c0.492,0.497,0.488,1.296-0.009,1.789l0,0c-0.244,0.244-0.568,0.366-0.888,0.366l0,0
			C90.089,223.085,89.765,222.959,89.516,222.71z M102.955,209.365c-0.492-0.493-0.488-1.292,0.004-1.785l0,0
			c0.497-0.493,1.296-0.488,1.785,0.004l0,0c0.493,0.497,0.493,1.296-0.004,1.789l0,0c-0.244,0.244-0.568,0.366-0.888,0.366l0,0
			C103.527,209.739,103.199,209.613,102.955,209.365z M107.433,204.916c-0.492-0.492-0.488-1.292,0.009-1.785l0,0
			c0.492-0.492,1.292-0.488,1.784,0.005l0,0c0.493,0.496,0.488,1.296-0.008,1.789l0,0c-0.244,0.244-0.568,0.366-0.888,0.366l0,0
			C108.006,205.29,107.682,205.164,107.433,204.916z M111.911,200.467c-0.488-0.492-0.488-1.292,0.009-1.784l0,0
			c0.492-0.492,1.292-0.488,1.785,0.004l0,0c0.492,0.497,0.488,1.296-0.004,1.789l0,0c-0.249,0.244-0.568,0.366-0.892,0.366l0,0
			C112.484,200.842,112.16,200.715,111.911,200.467z M116.394,196.019c-0.492-0.497-0.488-1.292,0.004-1.785l0,0
			c0.497-0.493,1.296-0.488,1.785,0.004l0,0c0.492,0.497,0.488,1.296-0.004,1.789l0,0c-0.248,0.244-0.568,0.366-0.888,0.366l0,0
			C116.966,196.393,116.638,196.267,116.394,196.019z M120.872,191.569c-0.493-0.492-0.488-1.292,0.004-1.785l0,0
			c0.496-0.492,1.296-0.488,1.789,0.005l0,0c0.488,0.497,0.488,1.296-0.008,1.784l0,0c-0.244,0.248-0.568,0.37-0.888,0.37l0,0
			C121.444,191.944,121.121,191.818,120.872,191.569z M125.35,187.121c-0.488-0.492-0.488-1.292,0.008-1.784l0,0
			c0.493-0.492,1.292-0.488,1.785,0.008l0,0c0.493,0.492,0.488,1.292-0.008,1.785l0,0c-0.244,0.244-0.564,0.366-0.888,0.366l0,0
			C125.922,187.496,125.599,187.369,125.35,187.121z M129.833,182.672c-0.492-0.497-0.492-1.292,0.004-1.785l0,0
			c0.497-0.493,1.292-0.488,1.784,0.004l0,0c0.493,0.497,0.488,1.296-0.004,1.789l0,0c-0.249,0.244-0.568,0.366-0.893,0.366l0,0
			C130.401,183.047,130.077,182.92,129.833,182.672z"/>
	</g>
	<g opacity="0.05">
		<path fill="#EFEFEF" d="M214.127,135.285c-0.493-0.493-0.488-1.292,0.004-1.785l0,0c0.497-0.492,1.296-0.488,1.789,0.004l0,0
			c0.488,0.497,0.488,1.296-0.008,1.789l0,0c-0.244,0.244-0.568,0.366-0.888,0.366l0,0
			C214.699,135.66,214.371,135.534,214.127,135.285z M218.605,130.836c-0.493-0.497-0.489-1.292,0.008-1.785l0,0
			c0.493-0.492,1.292-0.488,1.784,0.004l0,0c0.493,0.497,0.488,1.296-0.008,1.789l0,0c-0.244,0.244-0.568,0.366-0.888,0.366l0,0
			C219.177,131.211,218.853,131.084,218.605,130.836z M223.083,126.388c-0.488-0.493-0.488-1.292,0.008-1.785l0,0
			c0.497-0.492,1.296-0.488,1.785,0.004l0,0c0.493,0.497,0.488,1.296-0.004,1.789l0,0c-0.249,0.244-0.568,0.366-0.892,0.366l0,0
			C223.655,126.762,223.332,126.636,223.083,126.388z"/>
	</g>
	<g opacity="0.05">
		<path fill="#EFEFEF" d="M143.81,205.122c-0.493-0.497-0.488-1.292,0.004-1.785l0,0c0.496-0.493,1.296-0.488,1.784,0.004l0,0
			c0.493,0.497,0.488,1.296-0.004,1.789l0,0c-0.249,0.244-0.568,0.366-0.888,0.366l0,0
			C144.382,205.497,144.054,205.37,143.81,205.122z M152.767,196.224c-0.488-0.492-0.488-1.296,0.008-1.784l0,0
			c0.492-0.492,1.292-0.488,1.784,0.004l0,0c0.493,0.497,0.488,1.296-0.004,1.789l0,0c-0.249,0.244-0.568,0.366-0.892,0.366l0,0
			C153.339,196.599,153.015,196.473,152.767,196.224z M170.683,178.43c-0.488-0.497-0.488-1.292,0.009-1.785l0,0
			c0.492-0.492,1.292-0.488,1.784,0.004l0,0c0.493,0.497,0.488,1.296-0.004,1.785l0,0c-0.249,0.248-0.568,0.37-0.893,0.37l0,0
			C171.256,178.804,170.932,178.678,170.683,178.43z M175.166,173.981c-0.492-0.497-0.488-1.296,0.004-1.785l0,0
			c0.497-0.492,1.296-0.488,1.789,0.004l0,0c0.488,0.497,0.488,1.296-0.008,1.784l0,0c-0.244,0.249-0.568,0.371-0.888,0.371l0,0
			C175.734,174.355,175.41,174.229,175.166,173.981z M179.644,169.532c-0.492-0.497-0.488-1.292,0.004-1.784l0,0
			c0.497-0.493,1.296-0.488,1.785,0.004l0,0c0.493,0.497,0.493,1.296-0.004,1.785l0,0c-0.244,0.248-0.568,0.37-0.888,0.37l0,0
			C180.216,169.907,179.888,169.781,179.644,169.532z"/>
	</g>
	<g opacity="0.05">
		<path fill="#EFEFEF" d="M276.042,110.074c-0.493-0.497-0.488-1.296,0.008-1.789l0,0c0.493-0.488,1.292-0.488,1.785,0.008l0,0
			c0.493,0.493,0.488,1.292-0.008,1.785l0,0c-0.244,0.244-0.568,0.366-0.888,0.366l0,0
			C276.615,110.445,276.291,110.323,276.042,110.074z M280.521,105.625c-0.488-0.497-0.488-1.296,0.008-1.789l0,0
			c0.493-0.488,1.292-0.488,1.785,0.008l0,0c0.493,0.493,0.488,1.292-0.004,1.785l0,0c-0.249,0.244-0.568,0.366-0.893,0.366l0,0
			C281.093,105.996,280.769,105.874,280.521,105.625z M285.003,101.177c-0.493-0.497-0.493-1.296,0.004-1.789l0,0
			c0.497-0.488,1.296-0.488,1.784,0.008l0,0c0.493,0.497,0.488,1.292-0.004,1.785l0,0c-0.249,0.244-0.568,0.366-0.893,0.366l0,0
			C285.571,101.547,285.247,101.425,285.003,101.177z M293.959,92.279c-0.493-0.497-0.488-1.296,0.008-1.789l0,0
			c0.493-0.488,1.292-0.488,1.784,0.008l0,0c0.493,0.493,0.488,1.292-0.008,1.785l0,0c-0.244,0.244-0.564,0.366-0.888,0.366l0,0
			C294.532,92.65,294.208,92.528,293.959,92.279z M298.442,87.827c-0.492-0.493-0.492-1.292,0.004-1.785l0,0
			c0.497-0.492,1.296-0.488,1.785,0.008l0,0c0.493,0.493,0.488,1.292-0.004,1.785l0,0c-0.248,0.244-0.568,0.366-0.892,0.366l0,0
			C299.01,88.201,298.686,88.079,298.442,87.827z M302.92,83.382c-0.492-0.497-0.488-1.296,0.004-1.789l0,0
			c0.497-0.492,1.296-0.488,1.789,0.008l0,0c0.488,0.493,0.488,1.292-0.008,1.785l0,0c-0.249,0.244-0.568,0.366-0.888,0.366l0,0
			C303.488,83.752,303.164,83.63,302.92,83.382z M307.398,78.929c-0.492-0.493-0.488-1.292,0.004-1.785l0,0
			c0.497-0.492,1.296-0.488,1.789,0.008l0,0c0.488,0.493,0.488,1.292-0.009,1.785l0,0c-0.244,0.244-0.568,0.366-0.888,0.366l0,0
			C307.971,79.304,307.646,79.182,307.398,78.929z M311.876,74.48c-0.488-0.493-0.488-1.292,0.008-1.785l0,0
			c0.492-0.488,1.292-0.488,1.785,0.008l0,0c0.492,0.493,0.488,1.292-0.004,1.785l0,0c-0.248,0.244-0.568,0.366-0.892,0.366l0,0
			C312.449,74.855,312.125,74.729,311.876,74.48z M316.358,70.032c-0.492-0.493-0.492-1.292,0.005-1.785l0,0
			c0.496-0.493,1.296-0.488,1.784,0.009l0,0c0.492,0.492,0.488,1.292-0.004,1.784l0,0c-0.248,0.244-0.568,0.366-0.892,0.366l0,0
			C316.927,70.406,316.603,70.28,316.358,70.032z"/>
	</g>
	<g opacity="0.05">
		<path fill="#EFEFEF" d="M218.39,167.331c-0.492-0.497-0.488-1.292,0.004-1.785l0,0c0.496-0.492,1.296-0.488,1.789,0.004l0,0
			c0.488,0.497,0.488,1.296-0.008,1.789l0,0c-0.244,0.244-0.568,0.366-0.888,0.366l0,0
			C218.958,167.706,218.634,167.579,218.39,167.331z M222.868,162.882c-0.492-0.493-0.488-1.296,0.009-1.785l0,0
			c0.492-0.493,1.292-0.488,1.784,0.004l0,0c0.493,0.497,0.488,1.296-0.008,1.784l0,0c-0.244,0.249-0.568,0.371-0.888,0.371l0,0
			C223.441,163.257,223.117,163.13,222.868,162.882z M227.347,158.434c-0.488-0.497-0.488-1.292,0.008-1.785l0,0
			c0.497-0.492,1.292-0.488,1.785,0.004l0,0c0.492,0.497,0.488,1.296-0.004,1.789l0,0c-0.249,0.244-0.568,0.366-0.892,0.366l0,0
			C227.919,158.808,227.595,158.682,227.347,158.434z M231.829,153.985c-0.492-0.497-0.488-1.292,0.004-1.785l0,0
			c0.497-0.492,1.296-0.488,1.785,0.004l0,0c0.492,0.497,0.492,1.296-0.004,1.785l0,0c-0.248,0.248-0.568,0.37-0.888,0.37l0,0
			C232.397,154.359,232.073,154.233,231.829,153.985z M236.307,149.536c-0.493-0.497-0.488-1.296,0.004-1.785l0,0
			c0.496-0.492,1.296-0.488,1.789,0.004l0,0c0.488,0.497,0.488,1.296-0.009,1.784l0,0c-0.244,0.249-0.568,0.371-0.888,0.371l0,0
			C236.879,149.911,236.556,149.784,236.307,149.536z M240.785,145.087c-0.492-0.497-0.488-1.296,0.008-1.784l0,0
			c0.493-0.493,1.292-0.488,1.785,0.004l0,0c0.492,0.497,0.488,1.296-0.008,1.785l0,0c-0.244,0.244-0.564,0.37-0.888,0.37l0,0
			C241.358,145.458,241.034,145.336,240.785,145.087z M245.268,140.639c-0.493-0.497-0.493-1.292,0.004-1.785l0,0
			c0.497-0.492,1.296-0.488,1.785,0.004l0,0c0.492,0.497,0.488,1.296-0.004,1.785l0,0c-0.249,0.248-0.568,0.37-0.893,0.37l0,0
			C245.836,141.013,245.512,140.887,245.268,140.639z"/>
	</g>
	<g opacity="0.05">
		<path fill="#EFEFEF" d="M136.823,248.338c-0.492-0.492-0.488-1.292,0.008-1.785l0,0c0.493-0.492,1.292-0.488,1.785,0.009l0,0
			c0.493,0.492,0.488,1.292-0.008,1.785l0,0c-0.244,0.244-0.568,0.366-0.888,0.366l0,0
			C137.396,248.713,137.072,248.586,136.823,248.338z M141.302,243.889c-0.488-0.493-0.488-1.292,0.008-1.784l0,0
			c0.492-0.493,1.292-0.488,1.785,0.008l0,0c0.492,0.492,0.488,1.292-0.004,1.785l0,0c-0.249,0.244-0.568,0.366-0.893,0.366l0,0
			C141.874,244.264,141.55,244.138,141.302,243.889z M145.784,239.44c-0.492-0.492-0.488-1.292,0.004-1.784l0,0
			c0.497-0.493,1.296-0.488,1.785,0.004l0,0c0.492,0.497,0.492,1.296-0.004,1.789l0,0c-0.248,0.244-0.568,0.366-0.888,0.366l0,0
			C146.352,239.815,146.028,239.689,145.784,239.44z M159.223,226.095c-0.492-0.493-0.488-1.292,0.004-1.785l0,0
			c0.497-0.493,1.296-0.488,1.785,0.008l0,0c0.493,0.493,0.488,1.292-0.004,1.784l0,0c-0.249,0.244-0.568,0.366-0.888,0.366l0,0
			C159.791,226.469,159.467,226.343,159.223,226.095z M163.701,221.646c-0.492-0.492-0.488-1.292,0.004-1.785l0,0
			c0.497-0.492,1.296-0.488,1.789,0.005l0,0c0.488,0.497,0.488,1.296-0.008,1.789l0,0c-0.244,0.244-0.568,0.366-0.888,0.366l0,0
			C164.273,222.02,163.949,221.894,163.701,221.646z M168.179,217.197c-0.488-0.492-0.488-1.292,0.009-1.784l0,0
			c0.493-0.492,1.292-0.488,1.785,0.004l0,0c0.492,0.497,0.488,1.296-0.009,1.789l0,0c-0.244,0.244-0.568,0.366-0.888,0.366l0,0
			C168.751,217.572,168.427,217.445,168.179,217.197z M172.657,212.749c-0.488-0.493-0.488-1.292,0.008-1.785l0,0
			c0.497-0.493,1.292-0.488,1.785,0.004l0,0c0.493,0.497,0.488,1.296-0.004,1.789l0,0c-0.248,0.244-0.568,0.366-0.892,0.366l0,0
			C173.229,213.123,172.905,212.997,172.657,212.749z"/>
	</g>
	<g opacity="0.05">
		<path fill="#EFEFEF" d="M279.927,139.654c-0.488-0.497-0.488-1.296,0.008-1.789l0,0c0.492-0.488,1.292-0.488,1.785,0.008l0,0
			c0.492,0.492,0.488,1.292-0.004,1.785l0,0c-0.248,0.244-0.568,0.366-0.892,0.366l0,0
			C280.5,140.024,280.175,139.902,279.927,139.654z M284.41,135.205c-0.493-0.497-0.488-1.296,0.004-1.789l0,0
			c0.496-0.488,1.296-0.488,1.785,0.008l0,0c0.492,0.493,0.488,1.292-0.005,1.785l0,0c-0.248,0.244-0.568,0.366-0.892,0.366l0,0
			C284.978,135.576,284.653,135.454,284.41,135.205z M288.888,130.756c-0.492-0.497-0.488-1.296,0.004-1.789l0,0
			c0.497-0.488,1.296-0.488,1.789,0.008l0,0c0.488,0.493,0.488,1.292-0.008,1.785l0,0c-0.244,0.244-0.568,0.366-0.888,0.366l0,0
			C289.46,131.126,289.136,131.004,288.888,130.756z M293.366,126.308c-0.488-0.497-0.488-1.296,0.009-1.789l0,0
			c0.492-0.488,1.292-0.488,1.784,0.008l0,0c0.493,0.492,0.488,1.292-0.004,1.785l0,0c-0.249,0.244-0.568,0.366-0.893,0.366l0,0
			C293.938,126.678,293.614,126.556,293.366,126.308z M297.849,121.859c-0.493-0.497-0.493-1.296,0.004-1.789l0,0
			c0.497-0.488,1.296-0.488,1.785,0.008l0,0c0.492,0.493,0.488,1.292-0.004,1.785l0,0c-0.249,0.244-0.568,0.366-0.892,0.366l0,0
			C298.417,122.229,298.093,122.107,297.849,121.859z M315.766,104.064c-0.493-0.497-0.488-1.296,0.004-1.789l0,0
			c0.497-0.488,1.296-0.488,1.785,0.008l0,0c0.492,0.493,0.492,1.292-0.004,1.785l0,0c-0.249,0.244-0.568,0.366-0.888,0.366l0,0
			C316.337,104.435,316.009,104.312,315.766,104.064z M320.244,99.615c-0.493-0.497-0.488-1.296,0.008-1.789l0,0
			c0.493-0.488,1.292-0.488,1.785,0.008l0,0c0.493,0.493,0.488,1.292-0.008,1.785l0,0c-0.244,0.244-0.569,0.366-0.889,0.366l0,0
			C320.816,99.986,320.492,99.864,320.244,99.615z M324.722,95.167c-0.488-0.497-0.488-1.296,0.008-1.789l0,0
			c0.493-0.492,1.292-0.488,1.784,0.008l0,0c0.493,0.493,0.488,1.292-0.004,1.785l0,0c-0.249,0.244-0.568,0.366-0.893,0.366l0,0
			C325.294,95.537,324.97,95.415,324.722,95.167z M338.161,81.821c-0.493-0.497-0.488-1.296,0.008-1.789l0,0
			c0.492-0.488,1.292-0.488,1.784,0.009l0,0c0.493,0.492,0.488,1.292-0.004,1.784l0,0c-0.249,0.244-0.568,0.366-0.892,0.366l0,0
			C338.732,82.191,338.409,82.069,338.161,81.821z M342.643,77.368c-0.492-0.492-0.488-1.292,0.004-1.785l0,0
			c0.497-0.492,1.296-0.488,1.785,0.008l0,0c0.493,0.493,0.489,1.292-0.004,1.785l0,0c-0.248,0.244-0.568,0.366-0.892,0.366l0,0
			C343.211,77.742,342.887,77.616,342.643,77.368z M347.121,72.923c-0.493-0.497-0.488-1.296,0.004-1.789l0,0
			c0.497-0.488,1.296-0.488,1.785,0.009l0,0c0.493,0.492,0.493,1.292-0.004,1.784l0,0c-0.244,0.244-0.568,0.366-0.888,0.366l0,0
			C347.693,73.293,347.365,73.171,347.121,72.923z M351.599,68.47c-0.493-0.492-0.488-1.292,0.008-1.785l0,0
			c0.492-0.492,1.292-0.488,1.785,0.009l0,0c0.492,0.492,0.488,1.292-0.008,1.784l0,0c-0.244,0.244-0.568,0.366-0.888,0.366l0,0
			C352.172,68.845,351.847,68.723,351.599,68.47z"/>
	</g>
	<g opacity="0.05">
		<path fill="#EFEFEF" d="M201.593,217.454c-0.492-0.492-0.488-1.292,0.004-1.785l0,0c0.497-0.492,1.296-0.488,1.789,0.005l0,0
			c0.488,0.496,0.488,1.296-0.008,1.784l0,0c-0.244,0.248-0.568,0.37-0.888,0.37l0,0
			C202.166,217.828,201.841,217.702,201.593,217.454z M206.071,213.005c-0.492-0.492-0.488-1.292,0.009-1.784l0,0
			c0.492-0.492,1.292-0.488,1.785,0.004l0,0c0.492,0.497,0.488,1.296-0.009,1.789l0,0c-0.244,0.244-0.564,0.366-0.888,0.366l0,0
			C206.644,213.38,206.319,213.253,206.071,213.005z M210.549,208.557c-0.488-0.497-0.488-1.296,0.008-1.785l0,0
			c0.492-0.493,1.292-0.488,1.785,0.004l0,0c0.492,0.497,0.488,1.296-0.004,1.789l0,0c-0.248,0.244-0.568,0.366-0.892,0.366l0,0
			C211.122,208.931,210.797,208.805,210.549,208.557z M223.988,195.21c-0.488-0.497-0.488-1.296,0.009-1.785l0,0
			c0.492-0.493,1.292-0.488,1.784,0.004l0,0c0.492,0.493,0.488,1.296-0.004,1.785l0,0c-0.248,0.249-0.568,0.371-0.892,0.371l0,0
			C224.561,195.585,224.236,195.458,223.988,195.21z M228.47,190.762c-0.492-0.497-0.492-1.296,0.004-1.785l0,0
			c0.497-0.493,1.296-0.488,1.785,0.004l0,0c0.492,0.497,0.488,1.296-0.005,1.785l0,0c-0.248,0.248-0.568,0.37-0.892,0.37l0,0
			C229.039,191.136,228.714,191.01,228.47,190.762z M232.948,186.312c-0.492-0.497-0.488-1.296,0.004-1.784l0,0
			c0.497-0.493,1.296-0.493,1.789,0.004l0,0c0.488,0.496,0.488,1.296-0.008,1.785l0,0c-0.244,0.244-0.568,0.366-0.888,0.366l0,0
			C233.521,186.683,233.197,186.561,232.948,186.312z"/>
	</g>
	<g opacity="0.05">
		<path fill="#EFEFEF" d="M170.494,248.338c-0.492-0.492-0.488-1.292,0.009-1.785l0,0c0.492-0.492,1.292-0.488,1.784,0.009l0,0
			c0.493,0.492,0.489,1.292-0.008,1.785l0,0c-0.244,0.244-0.568,0.366-0.888,0.366l0,0
			C171.066,248.713,170.742,248.586,170.494,248.338z M174.972,243.889c-0.488-0.493-0.488-1.292,0.008-1.784l0,0
			c0.492-0.493,1.292-0.488,1.785,0.008l0,0c0.492,0.492,0.488,1.292-0.004,1.785l0,0c-0.248,0.244-0.568,0.366-0.892,0.366l0,0
			C175.544,244.264,175.22,244.138,174.972,243.889z M179.45,239.44c-0.488-0.492-0.484-1.292,0.008-1.784l0,0
			c0.497-0.493,1.296-0.488,1.785,0.004l0,0c0.493,0.497,0.488,1.296-0.004,1.789l0,0c-0.248,0.244-0.568,0.366-0.888,0.366l0,0
			C180.022,239.815,179.699,239.689,179.45,239.44z M183.933,234.992c-0.492-0.492-0.488-1.292,0.004-1.785l0,0
			c0.497-0.492,1.296-0.488,1.789,0.005l0,0c0.488,0.496,0.488,1.296-0.008,1.789l0,0c-0.244,0.244-0.568,0.366-0.888,0.366l0,0
			C184.505,235.366,184.181,235.24,183.933,234.992z"/>
	</g>
	<g opacity="0.05">
		<path fill="#EFEFEF" d="M318.244,137.55c-0.492-0.497-0.488-1.296,0.004-1.785l0,0c0.497-0.493,1.296-0.493,1.789,0.004l0,0
			c0.488,0.497,0.488,1.296-0.008,1.785l0,0c-0.249,0.244-0.568,0.366-0.888,0.366l0,0
			C318.817,137.92,318.488,137.798,318.244,137.55z M322.722,133.101c-0.492-0.497-0.488-1.296,0.004-1.785l0,0
			c0.497-0.492,1.296-0.492,1.789,0.004l0,0c0.493,0.497,0.488,1.296-0.008,1.785l0,0c-0.244,0.244-0.568,0.366-0.888,0.366l0,0
			C323.295,133.471,322.971,133.349,322.722,133.101z M327.201,128.652c-0.488-0.497-0.488-1.296,0.008-1.784l0,0
			c0.492-0.493,1.292-0.493,1.785,0.004l0,0c0.492,0.493,0.488,1.292-0.009,1.785l0,0c-0.244,0.244-0.564,0.366-0.888,0.366l0,0
			C327.773,129.022,327.449,128.9,327.201,128.652z M331.683,124.203c-0.492-0.497-0.488-1.296,0.004-1.784l0,0
			c0.497-0.493,1.296-0.488,1.785,0.004l0,0c0.492,0.497,0.488,1.296-0.004,1.785l0,0c-0.248,0.244-0.568,0.366-0.888,0.366l0,0
			C332.251,124.574,331.927,124.452,331.683,124.203z M336.161,119.754c-0.493-0.497-0.488-1.296,0.004-1.784l0,0
			c0.497-0.493,1.296-0.488,1.789,0.004l0,0c0.488,0.497,0.488,1.296-0.009,1.785l0,0c-0.244,0.244-0.568,0.366-0.888,0.366l0,0
			C336.733,120.125,336.41,120.003,336.161,119.754z M340.639,115.306c-0.488-0.497-0.488-1.296,0.008-1.785l0,0
			c0.493-0.493,1.292-0.493,1.785,0.004l0,0c0.493,0.497,0.488,1.296-0.008,1.785l0,0c-0.244,0.244-0.568,0.366-0.888,0.366l0,0
			C341.212,115.676,340.888,115.554,340.639,115.306z M345.122,110.857c-0.493-0.496-0.493-1.296,0.004-1.784l0,0
			c0.497-0.493,1.296-0.493,1.785,0.004l0,0c0.492,0.497,0.488,1.296-0.004,1.785l0,0c-0.249,0.244-0.568,0.371-0.893,0.371l0,0
			C345.69,111.232,345.366,111.105,345.122,110.857z M349.6,106.409c-0.493-0.497-0.488-1.296,0.004-1.789l0,0
			c0.497-0.488,1.296-0.488,1.789,0.008l0,0c0.488,0.497,0.488,1.296-0.008,1.785l0,0c-0.244,0.249-0.569,0.371-0.889,0.371l0,0
			C350.172,106.783,349.848,106.657,349.6,106.409z M354.078,101.959c-0.493-0.496-0.488-1.296,0.008-1.789l0,0
			c0.493-0.488,1.292-0.488,1.784,0.008l0,0c0.493,0.497,0.488,1.292-0.008,1.785l0,0c-0.244,0.244-0.568,0.371-0.888,0.371l0,0
			C354.65,102.33,354.326,102.208,354.078,101.959z"/>
	</g>
	<g opacity="0.05">
		<path fill="#EFEFEF" d="M275.588,179.911c-0.493-0.493-0.488-1.292,0.008-1.785l0,0c0.493-0.493,1.292-0.488,1.785,0.009l0,0
			c0.493,0.492,0.488,1.292-0.008,1.785l0,0c-0.244,0.244-0.568,0.366-0.888,0.366l0,0
			C276.16,180.286,275.836,180.159,275.588,179.911z M280.066,175.462c-0.488-0.493-0.488-1.292,0.008-1.785l0,0
			c0.493-0.492,1.292-0.488,1.785,0.004l0,0c0.493,0.497,0.488,1.296-0.004,1.789l0,0c-0.249,0.244-0.568,0.366-0.893,0.366l0,0
			C280.638,175.837,280.314,175.711,280.066,175.462z M284.548,171.014c-0.493-0.492-0.493-1.292,0.004-1.785l0,0
			c0.497-0.492,1.292-0.488,1.784,0.004l0,0c0.493,0.497,0.488,1.296-0.004,1.789l0,0c-0.249,0.244-0.568,0.366-0.893,0.366l0,0
			C285.117,171.388,284.792,171.262,284.548,171.014z M289.027,166.565c-0.493-0.492-0.488-1.292,0.004-1.785l0,0
			c0.497-0.492,1.296-0.488,1.789,0.004l0,0c0.488,0.497,0.488,1.296-0.008,1.789l0,0c-0.244,0.244-0.568,0.366-0.888,0.366l0,0
			C289.599,166.94,289.271,166.813,289.027,166.565z M293.505,162.117c-0.493-0.493-0.488-1.292,0.008-1.785l0,0
			c0.493-0.493,1.292-0.488,1.785,0.008l0,0c0.488,0.493,0.488,1.292-0.008,1.785l0,0c-0.244,0.244-0.568,0.366-0.888,0.366l0,0
			C294.077,162.491,293.753,162.365,293.505,162.117z"/>
	</g>
	<g opacity="0.05">
		<path fill="#EFEFEF" d="M239.691,215.564c-0.493-0.493-0.488-1.292,0.004-1.784l0,0c0.497-0.493,1.296-0.488,1.785,0.004l0,0
			c0.492,0.497,0.488,1.296-0.004,1.789l0,0c-0.249,0.244-0.568,0.367-0.888,0.367l0,0
			C240.263,215.939,239.935,215.812,239.691,215.564z M244.169,211.115c-0.492-0.497-0.488-1.292,0.008-1.784l0,0
			c0.493-0.493,1.292-0.488,1.785,0.004l0,0c0.493,0.497,0.488,1.296-0.008,1.789l0,0c-0.244,0.244-0.568,0.366-0.888,0.366l0,0
			C244.742,211.49,244.417,211.364,244.169,211.115z M248.647,206.667c-0.492-0.492-0.488-1.292,0.009-1.785l0,0
			c0.493-0.492,1.292-0.488,1.784,0.004l0,0c0.493,0.497,0.488,1.296-0.004,1.789l0,0c-0.249,0.244-0.568,0.366-0.893,0.366l0,0
			C249.22,207.041,248.896,206.915,248.647,206.667z M253.13,202.218c-0.493-0.492-0.488-1.292,0.004-1.785l0,0
			c0.497-0.492,1.296-0.488,1.785,0.004l0,0c0.493,0.497,0.488,1.296-0.004,1.789l0,0c-0.249,0.244-0.569,0.366-0.893,0.366l0,0
			C253.698,202.593,253.374,202.466,253.13,202.218z M257.608,197.77c-0.493-0.497-0.488-1.292,0.004-1.785l0,0
			c0.497-0.493,1.296-0.488,1.789,0.004l0,0c0.488,0.497,0.488,1.296-0.008,1.789l0,0c-0.244,0.244-0.568,0.366-0.888,0.366l0,0
			C258.18,198.144,257.856,198.018,257.608,197.77z"/>
	</g>
	<g opacity="0.05">
		<path fill="#EFEFEF" d="M206.69,248.338c-0.493-0.492-0.488-1.292,0.008-1.785l0,0c0.492-0.492,1.292-0.488,1.784,0.009l0,0
			c0.493,0.492,0.488,1.292-0.008,1.785l0,0c-0.244,0.244-0.568,0.366-0.888,0.366l0,0
			C207.262,248.713,206.938,248.586,206.69,248.338z M211.168,243.889c-0.488-0.493-0.488-1.292,0.008-1.784l0,0
			c0.493-0.493,1.292-0.488,1.784,0.008l0,0c0.493,0.492,0.488,1.292-0.004,1.785l0,0c-0.248,0.244-0.568,0.366-0.892,0.366l0,0
			C211.74,244.264,211.416,244.138,211.168,243.889z"/>
	</g>
	<g opacity="0.05">
		<path fill="#EFEFEF" d="M290.445,204.448c-0.493-0.492-0.488-1.292,0.008-1.784l0,0c0.493-0.492,1.292-0.488,1.785,0.008l0,0
			c0.493,0.492,0.488,1.292-0.008,1.785l0,0c-0.244,0.244-0.568,0.366-0.888,0.366l0,0
			C291.017,204.823,290.693,204.697,290.445,204.448z M294.923,200c-0.488-0.493-0.488-1.292,0.008-1.785l0,0
			c0.493-0.493,1.292-0.488,1.784,0.004l0,0c0.493,0.497,0.488,1.296-0.004,1.789l0,0c-0.248,0.244-0.568,0.366-0.892,0.366l0,0
			C295.496,200.375,295.171,200.248,294.923,200z M299.406,195.551c-0.493-0.493-0.493-1.292,0.004-1.785l0,0
			c0.497-0.493,1.296-0.488,1.785,0.008l0,0c0.493,0.493,0.488,1.292-0.004,1.785l0,0c-0.248,0.244-0.568,0.366-0.892,0.366l0,0
			C299.974,195.925,299.65,195.799,299.406,195.551z M303.884,191.102c-0.492-0.492-0.488-1.292,0.004-1.784l0,0
			c0.497-0.492,1.296-0.488,1.789,0.004l0,0c0.488,0.496,0.488,1.296-0.008,1.789l0,0c-0.244,0.244-0.568,0.366-0.888,0.366l0,0
			C304.456,191.477,304.132,191.351,303.884,191.102z M330.761,164.41c-0.492-0.497-0.492-1.292,0.004-1.784l0,0
			c0.497-0.493,1.292-0.489,1.785,0.004l0,0c0.492,0.497,0.488,1.296-0.005,1.789l0,0c-0.248,0.244-0.568,0.366-0.892,0.366l0,0
			C331.33,164.785,331.005,164.658,330.761,164.41z M335.239,159.961c-0.492-0.497-0.488-1.292,0.004-1.785l0,0
			c0.497-0.492,1.296-0.488,1.789,0.004l0,0c0.488,0.497,0.488,1.296-0.008,1.789l0,0c-0.244,0.244-0.568,0.366-0.888,0.366l0,0
			C335.812,160.336,335.488,160.21,335.239,159.961z M339.717,155.513c-0.492-0.492-0.488-1.292,0.009-1.785l0,0
			c0.492-0.492,1.292-0.488,1.785,0.004l0,0c0.492,0.497,0.488,1.296-0.004,1.785l0,0c-0.249,0.249-0.572,0.371-0.893,0.371l0,0
			C340.29,155.887,339.966,155.761,339.717,155.513z M344.2,151.064c-0.493-0.497-0.493-1.296,0.004-1.784l0,0
			c0.492-0.493,1.296-0.488,1.785,0.004l0,0c0.492,0.497,0.488,1.296-0.004,1.789l0,0c-0.248,0.244-0.568,0.366-0.892,0.366l0,0
			C344.768,151.438,344.444,151.312,344.2,151.064z M348.678,146.615c-0.493-0.497-0.488-1.292,0.004-1.785l0,0
			c0.497-0.492,1.296-0.488,1.784,0.004l0,0c0.492,0.497,0.492,1.296-0.004,1.785l0,0c-0.249,0.248-0.568,0.37-0.889,0.37l0,0
			C349.247,146.99,348.922,146.864,348.678,146.615z"/>
	</g>
	<g opacity="0.05">
		<path fill="#EFEFEF" d="M246.252,248.338c-0.492-0.492-0.488-1.292,0.008-1.785l0,0c0.493-0.492,1.292-0.488,1.785,0.009l0,0
			c0.493,0.492,0.488,1.292-0.009,1.785l0,0c-0.244,0.244-0.568,0.366-0.888,0.366l0,0
			C246.825,248.713,246.501,248.586,246.252,248.338z M250.73,243.889c-0.488-0.493-0.488-1.292,0.009-1.784l0,0
			c0.492-0.493,1.292-0.488,1.784,0.008l0,0c0.493,0.492,0.488,1.292-0.004,1.785l0,0c-0.249,0.244-0.568,0.366-0.893,0.366l0,0
			C251.303,244.264,250.979,244.138,250.73,243.889z M255.213,239.44c-0.493-0.492-0.488-1.292,0.004-1.784l0,0
			c0.497-0.493,1.296-0.488,1.785,0.004l0,0c0.492,0.497,0.488,1.296-0.004,1.789l0,0c-0.249,0.244-0.568,0.366-0.892,0.366l0,0
			C255.781,239.815,255.458,239.689,255.213,239.44z M259.691,234.992c-0.493-0.492-0.488-1.292,0.004-1.785l0,0
			c0.497-0.492,1.296-0.488,1.789,0.005l0,0c0.488,0.496,0.488,1.296-0.008,1.789l0,0c-0.244,0.244-0.569,0.366-0.888,0.366l0,0
			C260.264,235.366,259.939,235.24,259.691,234.992z M264.169,230.543c-0.493-0.492-0.488-1.292,0.008-1.784l0,0
			c0.493-0.492,1.292-0.488,1.785,0.004l0,0c0.493,0.497,0.488,1.296-0.008,1.789l0,0c-0.244,0.244-0.564,0.366-0.889,0.366l0,0
			C264.742,230.918,264.418,230.792,264.169,230.543z M268.647,226.095c-0.488-0.493-0.488-1.292,0.008-1.785l0,0
			c0.493-0.493,1.296-0.488,1.785,0.004l0,0c0.493,0.497,0.488,1.296-0.004,1.789l0,0c-0.249,0.244-0.568,0.366-0.893,0.366l0,0
			C269.22,226.469,268.896,226.343,268.647,226.095z M273.13,221.646c-0.493-0.492-0.488-1.292,0.004-1.785l0,0
			c0.497-0.492,1.296-0.488,1.784,0.005l0,0c0.493,0.497,0.493,1.296-0.004,1.789l0,0c-0.244,0.244-0.568,0.366-0.888,0.366l0,0
			C273.702,222.02,273.374,221.894,273.13,221.646z"/>
	</g>
	<g opacity="0.05">
		<path fill="#EFEFEF" d="M336.561,194.6c-0.493-0.497-0.488-1.296,0.004-1.789l0,0c0.497-0.488,1.296-0.488,1.784,0.008l0,0
			c0.492,0.493,0.488,1.292-0.004,1.785l0,0c-0.249,0.244-0.568,0.366-0.893,0.366l0,0
			C337.129,194.97,336.805,194.848,336.561,194.6z M341.039,190.151c-0.492-0.497-0.488-1.296,0.004-1.789l0,0
			c0.497-0.488,1.296-0.488,1.789,0.009l0,0c0.488,0.492,0.488,1.292-0.009,1.784l0,0c-0.244,0.244-0.568,0.366-0.888,0.366l0,0
			C341.611,190.521,341.288,190.399,341.039,190.151z M345.517,185.702c-0.492-0.497-0.488-1.296,0.009-1.789l0,0
			c0.493-0.493,1.292-0.488,1.784,0.009l0,0c0.493,0.492,0.488,1.292-0.008,1.785l0,0c-0.244,0.244-0.568,0.366-0.888,0.366l0,0
			C346.09,186.073,345.766,185.951,345.517,185.702z M350,181.254c-0.493-0.497-0.493-1.296,0.004-1.789l0,0
			c0.497-0.488,1.292-0.488,1.785,0.008l0,0c0.492,0.493,0.488,1.292-0.004,1.785l0,0c-0.249,0.244-0.568,0.366-0.892,0.366l0,0
			C350.568,181.624,350.244,181.502,350,181.254z"/>
	</g>
	<g opacity="0.05">
		<path fill="#EFEFEF" d="M282.448,248.338c-0.492-0.492-0.488-1.292,0.008-1.785l0,0c0.493-0.492,1.292-0.488,1.785,0.009l0,0
			c0.492,0.492,0.488,1.292-0.009,1.785l0,0c-0.244,0.244-0.568,0.366-0.888,0.366l0,0
			C283.021,248.713,282.697,248.586,282.448,248.338z M286.926,243.889c-0.488-0.493-0.488-1.292,0.009-1.784l0,0
			c0.492-0.493,1.292-0.488,1.784,0.008l0,0c0.493,0.492,0.488,1.292-0.004,1.785l0,0c-0.249,0.244-0.568,0.366-0.893,0.366l0,0
			C287.499,244.264,287.175,244.138,286.926,243.889z M291.409,239.44c-0.493-0.492-0.493-1.292,0.004-1.784l0,0
			c0.497-0.493,1.296-0.488,1.785,0.004l0,0c0.492,0.497,0.488,1.296-0.004,1.789l0,0c-0.249,0.244-0.568,0.366-0.892,0.366l0,0
			C291.977,239.815,291.653,239.689,291.409,239.44z"/>
	</g>
	<g opacity="0.05">
		<path fill="#EFEFEF" d="M320.328,248.338c-0.492-0.492-0.488-1.292,0.008-1.785l0,0c0.492-0.492,1.292-0.488,1.785,0.009l0,0
			c0.492,0.492,0.488,1.292-0.009,1.785l0,0c-0.244,0.244-0.568,0.366-0.888,0.366l0,0
			C320.9,248.713,320.576,248.586,320.328,248.338z M324.806,243.889c-0.488-0.493-0.488-1.292,0.009-1.784l0,0
			c0.492-0.493,1.292-0.488,1.784,0.008l0,0c0.492,0.492,0.488,1.292-0.008,1.785l0,0c-0.244,0.244-0.564,0.366-0.888,0.366l0,0
			C325.378,244.264,325.054,244.138,324.806,243.889z M329.288,239.44c-0.492-0.492-0.492-1.292,0.004-1.784l0,0
			c0.497-0.493,1.292-0.488,1.785,0.008l0,0c0.492,0.493,0.488,1.292-0.005,1.784l0,0c-0.248,0.244-0.568,0.366-0.892,0.366l0,0
			C329.856,239.815,329.532,239.689,329.288,239.44z M333.766,234.992c-0.492-0.492-0.488-1.292,0.004-1.785l0,0
			c0.497-0.492,1.296-0.488,1.789,0.005l0,0c0.488,0.496,0.488,1.296-0.008,1.789l0,0c-0.244,0.244-0.568,0.366-0.888,0.366l0,0
			C334.339,235.366,334.015,235.24,333.766,234.992z M338.244,230.543c-0.492-0.492-0.488-1.292,0.009-1.784l0,0
			c0.492-0.492,1.292-0.488,1.785,0.008l0,0c0.492,0.492,0.488,1.292-0.009,1.785l0,0c-0.244,0.244-0.568,0.366-0.888,0.366l0,0
			C338.817,230.918,338.493,230.792,338.244,230.543z M342.727,226.095c-0.493-0.493-0.493-1.292,0.004-1.785l0,0
			c0.497-0.493,1.292-0.488,1.785,0.008l0,0c0.492,0.493,0.488,1.292-0.004,1.784l0,0c-0.249,0.244-0.569,0.366-0.893,0.366l0,0
			C343.295,226.469,342.971,226.343,342.727,226.095z M347.205,221.646c-0.493-0.492-0.488-1.292,0.004-1.785l0,0
			c0.497-0.492,1.296-0.488,1.784,0.005l0,0c0.492,0.497,0.492,1.296-0.004,1.789l0,0c-0.244,0.244-0.568,0.366-0.888,0.366l0,0
			C347.777,222.02,347.449,221.894,347.205,221.646z"/>
	</g>
	<g opacity="0.05">
		<circle fill="#EFEFEF" cx="193.064" cy="85.645" r="2.243"/>
	</g>
	<g opacity="0.05">
		<path fill="#EFEFEF" d="M147.245,164.936c-0.484-0.5-0.476-1.3,0.025-1.789l0,0c0.497-0.484,1.296-0.476,1.785,0.021l0,0
			c0.484,0.501,0.476,1.301-0.025,1.789l0,0c-0.244,0.24-0.56,0.357-0.879,0.357l0,0
			C147.821,165.315,147.493,165.189,147.245,164.936z M151.765,160.525c-0.488-0.501-0.479-1.296,0.021-1.785l0,0
			c0.501-0.488,1.296-0.479,1.785,0.021l0,0c0.488,0.497,0.479,1.296-0.021,1.785l0,0c-0.244,0.24-0.564,0.357-0.884,0.357l0,0
			C152.337,160.904,152.009,160.778,151.765,160.525z"/>
	</g>
	<g opacity="0.05">
		<circle fill="#EFEFEF" cx="142.979" cy="169.4" r="2.243"/>
	</g>
	<g opacity="0.05">
		<circle fill="#EFEFEF" cx="162.69" cy="148.848" r="2.244"/>
	</g>
	<path opacity="0.05" fill="#EFEFEF" d="M142.771,102.476c-0.274-0.264-0.743-0.256-1.007,0.018c-0.534,0.554-1.162,0.8-2.034,0.8
		c-0.513,0-1.066-0.082-1.651-0.168c-0.598-0.088-1.215-0.179-1.847-0.179c-1.285,0-2.261,0.392-3.073,1.232
		c-1.503,1.557-1.171,3.361-0.878,4.953c0.275,1.496,0.492,2.676-0.502,3.706c-0.534,0.554-1.162,0.801-2.035,0.801
		c-0.513,0-1.066-0.082-1.652-0.168c-0.597-0.088-1.215-0.179-1.845-0.179c-1.285,0-2.261,0.392-3.073,1.232
		c-1.502,1.557-1.171,3.36-0.879,4.953c0.275,1.496,0.493,2.676-0.502,3.707c-0.535,0.554-1.162,0.8-2.035,0.8
		c-0.513,0-1.066-0.083-1.654-0.169c-0.597-0.088-1.214-0.181-1.845-0.181c-1.286,0-2.262,0.387-3.073,1.228
		c-0.132,0.137-0.203,0.308-0.2,0.498c0.003,0.19,0.081,0.35,0.217,0.481c0.133,0.129,0.309,0.163,0.495,0.163h0.013
		c0.191,0,0.369-0.043,0.5-0.18c0.535-0.554,1.163-0.763,2.036-0.763c0.512,0,1.065,0.082,1.651,0.168
		c0.598,0.088,1.215,0.179,1.846,0.179c1.286,0,2.262-0.392,3.074-1.232c1.502-1.557,1.171-3.361,0.878-4.954
		c-0.274-1.495-0.491-2.676,0.503-3.706c0.534-0.554,1.162-0.801,2.035-0.801c0.512,0,1.065,0.082,1.653,0.168
		c0.597,0.088,1.214,0.179,1.845,0.179c1.284,0,2.261-0.392,3.071-1.232c1.503-1.556,1.171-3.361,0.879-4.954
		c-0.275-1.495-0.493-2.676,0.502-3.706c0.534-0.554,1.162-0.8,2.035-0.8c0.512,0,1.065,0.082,1.651,0.168
		c0.598,0.088,1.216,0.18,1.848,0.18c1.285,0,2.261-0.392,3.072-1.232c0.132-0.137,0.203-0.317,0.2-0.507
		C142.985,102.786,142.908,102.608,142.771,102.476z"/>
	<path opacity="0.05" fill="#EFEFEF" d="M80.593,167.457l-1.665-1.666c-0.212-0.21-0.53-0.265-0.809-0.18
		c-0.458-0.649-1.243-1.055-2.253-1.135c-1.545-0.124-3.568,0.575-4.517,1.96c-1.053-0.164-2.111,0.068-3.627,0.4
		c-0.427,0.094-0.887,0.194-1.39,0.296c-1.195-0.129-4.237-0.23-5.622,0.711c-1.566,1.065-1.87,1.726-1.71,3.725
		c0.053,0.672,0.306,1.197,0.753,1.562c0.515,0.42,1.134,0.496,1.499,0.5c-0.014,0.164-0.028,0.324-0.051,0.458
		c-0.236,1.349-1.336,2.269-1.692,2.385c-1.261-0.636-1.986-0.232-2.308,0.069c-0.485,0.454-0.649,1.256-0.381,1.864
		c0.983,2.245,3.335,3.798,4.144,4.281c-0.169,0.305-0.137,0.691,0.121,0.949l1.663,1.663c0.151,0.152,0.353,0.236,0.567,0.236
		c0.214,0,0.415-0.083,0.567-0.235l16.712-16.712c0.151-0.151,0.235-0.353,0.234-0.567
		C80.828,167.808,80.744,167.607,80.593,167.457z M72.077,167.265c0.619-1.208,2.405-1.844,3.706-1.74
		c0.44,0.036,1.171,0.183,1.524,0.758l-5.429,5.429c-0.223-1.006-0.411-2.556-0.046-4.212
		C71.935,167.452,72.022,167.371,72.077,167.265z M70.771,167.438c-0.44,2.181-0.044,4.146,0.24,5.141l-1.286,1.286
		c-0.539-1.983-1.083-5.11,0.003-6.308l-0.043-0.039C70.081,167.459,70.438,167.427,70.771,167.438z M67.947,167.865
		c0.158-0.035,0.305-0.067,0.452-0.098c-0.832,2.101,0.028,5.484,0.475,6.949l-1.27,1.271c-0.259-0.596-0.712-1.751-0.969-3.113
		c-0.31-1.64,0.287-4.129,0.469-4.827C67.397,167.984,67.681,167.923,67.947,167.865z M60.049,171.485
		c-0.13-1.633-0.001-1.918,1.253-2.771c0.369-0.251,0.952-0.406,1.597-0.498c-1.342,1.078-1.51,2.928-1.583,4.362
		c-0.196,0.002-0.608-0.025-0.902-0.268C60.198,172.132,60.079,171.862,60.049,171.485z M57.783,177.984
		c-0.08-0.183-0.039-0.509,0.136-0.673c0.208-0.194,0.623-0.152,1.141,0.115c0.172,0.106,0.453,0.181,0.87,0.01
		c0.761-0.31,2.022-1.532,2.308-3.167c0.069-0.396,0.091-0.866,0.115-1.363c0.109-2.291,0.372-4.074,2.617-4.451
		c0.353-0.059,0.68-0.119,0.994-0.179c-0.256,1.092-0.66,3.216-0.363,4.792c0.345,1.829,1.012,3.304,1.208,3.713l-5.114,5.115
		C61.323,181.686,58.736,180.162,57.783,177.984z M63.315,184.379l-1.308-1.308l8.022-8.022l0.053-0.019
		c-0.002-0.008-0.006-0.018-0.009-0.025l2.132-2.132l0.006-0.002l-0.001-0.002l6.153-6.154l1.308,1.309L63.315,184.379z"/>
	<g opacity="0.05">
		<circle fill="#EFEFEF" cx="79.847" cy="232.532" r="2.243"/>
	</g>
	<g opacity="0.05">
		<path fill="#EFEFEF" d="M257.79,93c-0.347,0-0.629-0.032-0.631-0.38l-0.048-7.092c-0.001-0.169,0.066-0.27,0.186-0.389
			c0.12-0.119,0.299-0.146,0.452-0.153l6.571,0.084l-0.043-6.564c-0.001-0.169,0.065-0.328,0.186-0.448
			c0.12-0.119,0.296-0.181,0.452-0.182l6.571,0.069l-0.042-6.574c-0.001-0.169,0.066-0.2,0.186-0.319
			c0.118-0.118,0.278-0.052,0.445-0.052c0.002,0,0.004,0,0.007,0l7.215-0.059c0.349,0.004,0.629,0.187,0.625,0.536
			c-0.004,0.347-0.286,0.523-0.631,0.523c-0.002,0-0.004,0-0.006,0l-6.574-0.03l0.042,6.592c0.001,0.169-0.065,0.341-0.186,0.46
			c-0.12,0.12-0.274,0.203-0.452,0.189l-6.571-0.067l0.043,6.574c0.001,0.169-0.066,0.333-0.186,0.452
			c-0.12,0.119-0.271,0.188-0.452,0.184l-6.572-0.068l0.044,6.326c0.002,0.349-0.279,0.388-0.627,0.388
			C257.792,93,257.791,93,257.79,93z"/>
	</g>
	<g opacity="0.05">
		<circle fill="#EFEFEF" cx="285.237" cy="209.805" r="2.243"/>
	</g>
	<path opacity="0.05" fill="#EFEFEF" d="M327.538,206.013c-0.274-0.265-0.743-0.256-1.007,0.018c-0.534,0.554-1.162,0.8-2.035,0.8
		c-0.513,0-1.065-0.082-1.65-0.167c-0.598-0.088-1.215-0.18-1.847-0.18c-1.285,0-2.261,0.391-3.072,1.232
		c-1.503,1.557-1.171,3.361-0.879,4.953c0.275,1.495,0.493,2.676-0.501,3.706c-0.535,0.554-1.162,0.801-2.035,0.801
		c-0.513,0-1.066-0.082-1.652-0.168c-0.598-0.088-1.215-0.179-1.846-0.179c-1.285,0-2.261,0.393-3.072,1.233
		c-1.503,1.558-1.171,3.363-0.879,4.955c0.275,1.495,0.493,2.679-0.502,3.71c-0.534,0.554-1.162,0.806-2.034,0.806
		c-0.513,0-1.066-0.07-1.654-0.156c-0.597-0.088-1.214-0.155-1.845-0.155c-1.286,0-2.262,0.44-3.073,1.281
		c-0.272,0.282-0.265,0.832,0.017,1.104c0.133,0.129,0.309,0.395,0.495,0.395h0.014c0.191,0,0.368-0.275,0.5-0.411
		c0.535-0.554,1.163-0.995,2.036-0.995c0.511,0,1.064,0.081,1.65,0.168c0.598,0.088,1.215,0.179,1.847,0.179
		c1.285,0,2.262-0.392,3.073-1.232c1.503-1.557,1.171-3.361,0.878-4.954c-0.274-1.496-0.491-2.676,0.503-3.706
		c0.535-0.554,1.162-0.801,2.035-0.801c0.513,0,1.065,0.082,1.653,0.169c0.597,0.088,1.214,0.179,1.844,0.179
		c1.285,0,2.261-0.392,3.072-1.231c1.503-1.556,1.171-3.36,0.879-4.954c-0.275-1.495-0.493-2.675,0.501-3.705
		c0.535-0.554,1.162-0.801,2.035-0.801c0.512,0,1.064,0.081,1.65,0.167c0.598,0.089,1.217,0.18,1.848,0.18
		c1.285,0,2.261-0.391,3.072-1.232C327.828,206.737,327.82,206.285,327.538,206.013z M298,229.191c0,0,0.031-0.021,0.033-0.05
		c0.023,0.042,0.046,0.085,0.083,0.12c0.007,0.007,0.017,0.009,0.025,0.016L298,229.402V229.191z"/>
	<g opacity="0.05">
		<circle fill="#EFEFEF" cx="269.665" cy="117.211" r="2.243"/>
	</g>
	<g opacity="0.05">
		<circle fill="#EFEFEF" cx="334.901" cy="49.87" r="2.243"/>
	</g>
	<path opacity="0.05" fill="#EFEFEF" d="M269.481,146.715c-0.277-0.297-0.743-0.314-1.042-0.038
		c-1.358,1.264-2.193,2.888-2.35,4.574c-0.067,0.718-0.007,1.427,0.17,2.105c-0.663-0.227-1.367-0.334-2.088-0.321
		c-1.692,0.035-3.372,0.751-4.731,2.015c-1.358,1.264-2.193,2.889-2.35,4.574c-0.049,0.531-0.022,1.055,0.063,1.567
		c-2.166-0.629-4.634-0.048-6.572,1.755c-1.358,1.265-2.193,2.889-2.35,4.574c-0.067,0.719-0.008,1.428,0.17,2.106
		c-0.664-0.227-1.359-0.332-2.088-0.322c-1.692,0.036-3.373,0.751-4.731,2.016c-0.297,0.277-0.314,0.743-0.037,1.041
		c0.145,0.156,0.342,0.234,0.539,0.234c0.18,0,0.36-0.065,0.502-0.197c1.093-1.018,2.428-1.593,3.758-1.621
		c1.353-0.034,2.594,0.506,3.561,1.545c0.277,0.297,0.744,0.313,1.041,0.037c0.156-0.145,0.235-0.342,0.235-0.539
		c0-0.18-0.065-0.36-0.197-0.502c-0.967-1.039-1.412-2.305-1.286-3.662c0.124-1.325,0.794-2.615,1.887-3.633
		c1.901-1.769,4.333-2.071,6.222-0.939c0.257,0.475,0.572,0.927,0.957,1.341c0.145,0.156,0.342,0.234,0.539,0.234
		c0.18,0,0.36-0.065,0.502-0.197c0.169-0.158,0.237-0.376,0.222-0.59c0.202-0.279,0.199-0.665-0.044-0.927
		c-0.317-0.341-0.661-0.637-1.023-0.892c-0.856-1.923-0.351-4.219,1.483-5.926c1.093-1.018,2.428-1.593,3.758-1.621
		c1.355-0.034,2.594,0.505,3.561,1.546c0.277,0.298,0.743,0.314,1.041,0.037c0.156-0.145,0.234-0.342,0.234-0.539
		c0-0.18-0.065-0.36-0.197-0.502c-0.967-1.04-1.412-2.306-1.286-3.663c0.124-1.324,0.793-2.614,1.887-3.631
		C269.741,147.479,269.758,147.013,269.481,146.715z"/>
	<g opacity="0.05">
		<path fill="#EFEFEF" d="M102.775,242.464c-0.197,0-0.394-0.079-0.539-0.234c-0.277-0.298-0.261-0.764,0.037-1.041
			c1.358-1.265,3.039-1.98,4.731-2.016c0.721-0.014,1.424,0.095,2.088,0.322c-0.178-0.679-0.237-1.388-0.17-2.106
			c0.157-1.686,0.991-3.31,2.35-4.575c2.872-2.672,6.914-2.673,9.401,0c0.277,0.298,0.261,0.764-0.037,1.041
			c-0.298,0.277-0.764,0.26-1.041-0.037c-1.946-2.092-5.025-2.06-7.319,0.075c-1.093,1.018-1.764,2.308-1.887,3.632
			c-0.126,1.357,0.318,2.623,1.285,3.662c0.132,0.142,0.198,0.322,0.198,0.502c0,0.197-0.079,0.394-0.235,0.539
			c-0.298,0.277-0.764,0.26-1.041-0.037c-0.967-1.039-2.199-1.579-3.561-1.545c-1.331,0.027-2.665,0.603-3.758,1.621
			C103.135,242.399,102.955,242.464,102.775,242.464z"/>
	</g>
	<g opacity="0.05">
		<path fill="#EFEFEF" d="M119.994,234.529c-0.197,0-0.394-0.079-0.54-0.235c-1.243-1.336-1.837-3.042-1.674-4.803
			c0.157-1.685,0.991-3.31,2.35-4.574c1.359-1.264,3.039-1.98,4.731-2.015c0.72-0.017,1.424,0.095,2.088,0.321
			c-0.178-0.679-0.237-1.388-0.17-2.105c0.156-1.686,0.991-3.31,2.35-4.574c0.298-0.277,0.764-0.26,1.041,0.037
			c0.277,0.298,0.26,0.764-0.038,1.041c-1.093,1.018-1.763,2.307-1.886,3.631c-0.126,1.357,0.318,2.623,1.286,3.663
			c0.132,0.142,0.197,0.322,0.197,0.502c0,0.197-0.079,0.394-0.235,0.539c-0.297,0.277-0.764,0.26-1.041-0.037
			c-0.967-1.04-2.191-1.575-3.561-1.546c-1.33,0.028-2.665,0.604-3.758,1.621c-2.295,2.136-2.547,5.203-0.601,7.294
			c0.277,0.298,0.261,0.764-0.037,1.042C120.354,234.463,120.173,234.529,119.994,234.529z"/>
	</g>
	<g opacity="0.05">
		<circle fill="#EFEFEF" cx="192.643" cy="226.64" r="2.243"/>
	</g>
	<g opacity="0.05">
		<circle fill="#EFEFEF" cx="307.965" cy="42.294" r="2.243"/>
	</g>
</g>
</svg>
