<?xml version="1.0" encoding="utf-8"?>
<!-- Generator: Adobe Illustrator 15.0.0, SVG Export Plug-In . SVG Version: 6.00 Build 0)  -->
<!DOCTYPE svg PUBLIC "-//W3C//DTD SVG 1.1//EN" "http://www.w3.org/Graphics/SVG/1.1/DTD/svg11.dtd">
<svg version="1.1" xmlns="http://www.w3.org/2000/svg" xmlns:xlink="http://www.w3.org/1999/xlink" x="0px" y="0px" width="244px"
	 height="20px" viewBox="0 0 244 20" enable-background="new 0 0 244 20" xml:space="preserve">
<g id="Layer_1">
	<g>
		<path fill="#FFFBF3" d="M243.688,12.75c-6.903,0-12.5-5.597-12.5-12.5c0-0.084,0.011-0.166,0.013-0.25H12.487
			C12.489,0.084,12.5,0.166,12.5,0.25c0,6.861-5.624,12.332-12.469,12.399v8.923l8.926,0.094v-4.636l1.136,0.032
			c3.053,0,5.593-2.503,5.64-5.579L15.749,10H227v1.484c0.047,3.076,2.123,5.578,5.197,5.578c0.207,0,0.41-0.013,0.611-0.034L235,17
			v4.667h9v-8.933C243.895,12.737,243.793,12.75,243.688,12.75z"/>
		<path fill="#FFFBF3" d="M225,12H17.654c-0.186,3.948-2.623,6.698-6.697,7.011v2.656H233v-2.61
			C228.678,18.823,225.322,16.51,225,12z"/>
	</g>
</g>
<g id="Layer_2">
</g>
</svg>
