<?xml version="1.0" encoding="utf-8"?>
<!-- Generator: Adobe Illustrator 15.0.0, SVG Export Plug-In . SVG Version: 6.00 Build 0)  -->
<!DOCTYPE svg PUBLIC "-//W3C//DTD SVG 1.1//EN" "http://www.w3.org/Graphics/SVG/1.1/DTD/svg11.dtd">
<svg version="1.1" id="Layer_1" xmlns="http://www.w3.org/2000/svg" xmlns:xlink="http://www.w3.org/1999/xlink" x="0px" y="0px"
	 width="292px" height="423px" viewBox="0 0 292 423" enable-background="new 0 0 292 423" xml:space="preserve">
<polygon fill="#FBFBFB" points="1,398.244 8.943,406.816 10.347,406.899 2.327,398.244 "/>
<polygon fill="#FBFBFB" points="10.041,398.244 18.51,407.385 19.915,407.468 11.368,398.244 "/>
<polygon fill="#FBFBFB" points="19.082,398.244 28.077,407.952 29.481,408.035 20.409,398.244 "/>
<polygon fill="#FBFBFB" points="28.124,398.244 37.645,408.52 39.049,408.604 29.45,398.244 "/>
<polygon fill="#FBFBFB" points="37.164,398.244 47.211,409.088 48.615,409.171 38.491,398.244 "/>
<polygon fill="#FBFBFB" points="46.207,398.244 56.78,409.655 58.184,409.738 47.533,398.244 "/>
<polygon fill="#FBFBFB" points="55.248,398.244 66.347,410.223 67.75,410.307 56.574,398.244 "/>
<polygon fill="#FBFBFB" points="64.289,398.244 75.915,410.791 77.319,410.874 65.616,398.244 "/>
<polygon fill="#FBFBFB" points="73.33,398.244 85.481,411.358 86.886,411.441 74.658,398.244 "/>
<polygon fill="#FBFBFB" points="82.371,398.244 95.048,411.926 96.453,412.01 83.698,398.244 "/>
<polygon fill="#FBFBFB" points="91.412,398.244 104.616,412.494 106.02,412.577 92.739,398.244 "/>
<polygon fill="#FBFBFB" points="100.453,398.244 114.182,413.062 115.587,413.145 101.781,398.244 "/>
<polygon fill="#FBFBFB" points="109.494,398.244 123.75,413.629 125.155,413.713 110.822,398.244 "/>
<polygon fill="#FBFBFB" points="118.535,398.244 133.317,414.197 134.721,414.28 119.862,398.244 "/>
<polygon fill="#FBFBFB" points="127.577,398.244 142.885,414.765 144.291,414.848 128.906,398.244 "/>
<polygon fill="#FBFBFB" points="136.619,398.244 152.453,415.332 153.858,415.416 137.947,398.244 "/>
<polygon fill="#FBFBFB" points="145.659,398.244 162.019,415.9 163.425,415.983 146.988,398.244 "/>
<polygon fill="#FBFBFB" points="154.701,398.244 171.586,416.468 172.992,416.552 156.028,398.244 "/>
<polygon fill="#FBFBFB" points="163.742,398.244 181.155,417.036 182.559,417.119 165.07,398.244 "/>
<polygon fill="#FBFBFB" points="172.784,398.244 190.722,417.604 192.126,417.687 174.111,398.244 "/>
<polygon fill="#FBFBFB" points="181.825,398.244 200.289,418.171 201.694,418.255 183.152,398.244 "/>
<polygon fill="#FBFBFB" points="190.865,398.244 209.856,418.739 211.261,418.822 192.194,398.244 "/>
<polygon fill="#FBFBFB" points="199.908,398.244 219.424,419.307 220.829,419.39 201.236,398.244 "/>
<polygon fill="#FBFBFB" points="208.95,398.244 228.992,419.874 230.396,419.958 210.276,398.244 "/>
<polygon fill="#FBFBFB" points="217.99,398.244 238.558,420.442 239.964,420.525 219.319,398.244 "/>
<polygon fill="#FBFBFB" points="227.031,398.244 248.125,421.01 249.532,421.093 228.361,398.244 "/>
<polygon fill="#FBFBFB" points="236.073,398.244 257.693,421.577 259.098,421.661 237.4,398.244 "/>
<polygon fill="#FBFBFB" points="245.115,398.244 266.335,421.146 266.416,419.8 246.442,398.244 "/>
<polygon fill="#FBFBFB" points="254.156,398.244 266.878,411.976 266.958,410.63 255.482,398.244 "/>
<polygon fill="#FBFBFB" points="256.3,390.802 267.423,402.806 267.503,401.459 256.3,389.368 "/>
<polygon fill="#FBFBFB" points="256.3,381.043 267.968,393.635 268.048,392.289 256.3,379.611 "/>
<polygon fill="#FBFBFB" points="256.3,371.286 268.511,384.465 268.592,383.119 256.3,369.854 "/>
<polygon fill="#FBFBFB" points="256.3,361.529 269.056,375.295 269.136,373.948 256.3,360.096 "/>
<polygon fill="#FBFBFB" points="256.3,351.771 269.6,366.124 269.68,364.778 256.3,350.339 "/>
<polygon fill="#FBFBFB" points="256.3,342.013 270.145,356.954 270.224,355.607 256.3,340.58 "/>
<polygon fill="#FBFBFB" points="256.3,332.256 270.689,347.784 270.768,346.438 256.3,330.824 "/>
<polygon fill="#FBFBFB" points="256.3,322.498 271.233,338.613 271.312,337.268 256.3,321.066 "/>
<polygon fill="#FBFBFB" points="256.3,312.741 271.777,329.444 271.857,328.098 256.3,311.309 "/>
<polygon fill="#FBFBFB" points="256.3,302.982 272.321,320.272 272.4,318.927 256.3,301.551 "/>
<polygon fill="#FBFBFB" points="256.3,293.227 272.865,311.104 272.945,309.756 256.3,291.793 "/>
<polygon fill="#FBFBFB" points="256.3,283.468 273.41,301.933 273.49,300.587 256.3,282.036 "/>
<polygon fill="#FBFBFB" points="256.3,273.711 273.953,292.763 274.033,291.415 256.3,272.277 "/>
<polygon fill="#FBFBFB" points="256.3,263.954 274.498,283.593 274.578,282.245 256.3,262.52 "/>
<polygon fill="#FBFBFB" points="256.3,254.195 275.042,274.422 275.123,273.075 256.3,252.762 "/>
<polygon fill="#FBFBFB" points="256.3,244.439 275.585,265.252 275.666,263.905 256.3,243.006 "/>
<polygon fill="#FBFBFB" points="256.3,234.682 276.13,256.082 276.21,254.734 256.3,233.248 "/>
<polygon fill="#FBFBFB" points="256.3,224.924 276.674,246.912 276.754,245.564 256.3,223.49 "/>
<polygon fill="#FBFBFB" points="256.3,215.166 277.218,237.74 277.298,236.395 256.3,213.732 "/>
<polygon fill="#FBFBFB" points="256.3,205.409 277.763,228.571 277.842,227.223 256.3,203.974 "/>
<polygon fill="#FBFBFB" points="256.3,195.651 278.307,219.401 278.386,218.053 256.3,194.217 "/>
<polygon fill="#FBFBFB" points="256.3,185.894 278.851,210.23 278.931,208.882 256.3,184.458 "/>
<polygon fill="#FBFBFB" points="256.3,176.136 279.395,201.06 279.474,199.712 256.3,174.702 "/>
<polygon fill="#FBFBFB" points="256.3,166.377 279.939,191.89 280.019,190.542 256.3,164.944 "/>
<polygon fill="#FBFBFB" points="256.3,156.62 280.484,182.719 280.564,181.371 256.3,155.186 "/>
<polygon fill="#FBFBFB" points="256.3,146.863 281.027,173.549 281.108,172.201 256.3,145.428 "/>
<polygon fill="#FBFBFB" points="256.3,137.105 281.572,164.379 281.652,163.031 256.3,135.671 "/>
<polygon fill="#FBFBFB" points="256.3,127.348 282.117,155.208 282.197,153.861 256.3,125.914 "/>
<polygon fill="#FBFBFB" points="256.3,117.59 282.66,146.038 282.741,144.69 256.3,116.156 "/>
<polygon fill="#FBFBFB" points="256.3,107.833 283.205,136.868 283.285,135.52 256.3,106.398 "/>
<polygon fill="#FBFBFB" points="256.3,98.075 283.75,127.698 283.829,126.35 256.3,96.641 "/>
<polygon fill="#FBFBFB" points="256.3,88.318 284.292,118.528 284.373,117.18 256.3,86.883 "/>
<polygon fill="#FBFBFB" points="256.3,78.559 284.837,109.356 284.917,108.009 256.3,77.126 "/>
<polygon fill="#FBFBFB" points="256.3,68.802 285.381,100.187 285.46,98.839 256.3,67.368 "/>
<polygon fill="#FBFBFB" points="256.3,59.044 285.925,91.017 286.005,89.669 256.3,57.61 "/>
<polygon fill="#FBFBFB" points="256.3,49.287 286.469,81.846 286.548,80.499 256.3,47.854 "/>
<polygon fill="#FBFBFB" points="256.3,39.529 287.013,72.676 287.093,71.329 256.3,38.096 "/>
<polygon fill="#FBFBFB" points="256.3,29.771 287.558,63.505 287.638,62.158 256.3,28.338 "/>
<polygon fill="#FBFBFB" points="256.3,20.015 288.101,54.335 288.181,52.988 256.3,18.581 "/>
<polygon fill="#FBFBFB" points="256.3,10.257 288.646,45.165 288.726,43.817 256.3,8.822 "/>
<polygon fill="#FBFBFB" points="256.3,0 257.216,0.055 289.271,34.647 289.191,35.995 256.3,0.499 "/>
<polygon fill="#FBFBFB" points="265.378,0.539 289.734,26.824 289.815,25.477 266.785,0.623 "/>
<polygon fill="#FBFBFB" points="290.296,17.343 290.376,15.996 276.675,1.209 275.271,1.126 "/>
<polygon fill="#FBFBFB" points="290.861,7.862 290.94,6.515 286.568,1.796 285.162,1.713 "/>
</svg>
