<?xml version="1.0" encoding="utf-8"?>
<!-- Generator: Adobe Illustrator 16.0.0, SVG Export Plug-In . SVG Version: 6.00 Build 0)  -->
<!DOCTYPE svg PUBLIC "-//W3C//DTD SVG 1.1//EN" "http://www.w3.org/Graphics/SVG/1.1/DTD/svg11.dtd">
<svg version="1.1" id="Layer_1" xmlns="http://www.w3.org/2000/svg" xmlns:xlink="http://www.w3.org/1999/xlink" x="0px" y="0px"
	 width="44.666px" height="44.834px" viewBox="0 0 44.666 44.834" enable-background="new 0 0 44.666 44.834" xml:space="preserve">
<g id="Twitter__x28_alt_x29__3_">
	<path fill="#3A4284" d="M23.809,15.006c1.126-0.093,1.89-0.605,2.183-1.3c-0.406,0.25-1.667,0.522-2.361,0.263
		c-0.034-0.163-0.073-0.318-0.11-0.458c-0.53-1.948-2.347-3.516-4.248-3.328c0.153-0.061,0.31-0.12,0.467-0.172
		c0.209-0.074,1.437-0.275,1.244-0.708c-0.163-0.381-1.664,0.289-1.947,0.376c0.373-0.14,0.991-0.38,1.057-0.811
		c-0.572,0.079-1.133,0.349-1.567,0.742c0.157-0.169,0.275-0.375,0.301-0.596c-1.523,0.974-2.414,2.938-3.136,4.844
		c-0.565-0.551-1.067-0.981-1.517-1.221c-1.264-0.676-2.773-1.383-5.141-2.263c-0.073,0.783,0.388,1.826,1.713,2.52
		c-0.287-0.039-0.812,0.046-1.233,0.148c0.17,0.898,0.73,1.638,2.245,1.996c-0.692,0.046-1.05,0.203-1.374,0.542
		c0.314,0.625,1.083,1.36,2.467,1.209c-1.538,0.663-0.627,1.891,0.625,1.706c-2.134,2.206-5.5,2.044-7.433,0.2
		c5.046,6.875,16.014,4.066,17.649-2.557c1.224,0.01,1.944-0.424,2.391-0.903C25.375,15.354,24.352,15.229,23.809,15.006z"/>
</g>
<circle fill="none" stroke="#3A4284" stroke-width="1.5" stroke-miterlimit="10" cx="15.75" cy="15.75" r="14.75"/>
</svg>
