<?xml version="1.0" encoding="utf-8"?>
<!-- Generator: Adobe Illustrator 15.0.0, SVG Export Plug-In . SVG Version: 6.00 Build 0)  -->
<!DOCTYPE svg PUBLIC "-//W3C//DTD SVG 1.1//EN" "http://www.w3.org/Graphics/SVG/1.1/DTD/svg11.dtd">
<svg version="1.1" id="Layer_1" xmlns="http://www.w3.org/2000/svg" xmlns:xlink="http://www.w3.org/1999/xlink" x="0px" y="0px"
	 width="63.375px" height="20.625px" viewBox="0 0 63.375 20.625" enable-background="new 0 0 63.375 20.625" xml:space="preserve">
<path fill="none" stroke="#FFFBF2" stroke-linecap="round" stroke-miterlimit="10" d="M62.416,18.625
	c-8.031,0-13.792-7.583-13.792-12.879c0-6.309,7.744-6.309,7.744,0.129c0,5.376-6.583,12.896-14.368,12.896h-0.333
	c-7.261,0-13.423-7.695-13.423-12.96c0-6.374,7.894-6.374,7.894-0.243c0,5.557-6.572,13.057-14.722,13.057
	c-8.031,0-13.792-7.583-13.792-12.879c0-6.309,7.744-6.309,7.744,0.129c0,5.376-6.583,12.896-14.368,12.896"/>
</svg>
